<?xml version="1.0" encoding="utf-8"?>
<!-- Generator: Adobe Illustrator 14.0.0, SVG Export Plug-In . SVG Version: 6.00 Build 43363)  -->
<!DOCTYPE svg PUBLIC "-//W3C//DTD SVG 1.1//EN" "http://www.w3.org/Graphics/SVG/1.1/DTD/svg11.dtd">
<svg version="1.1" id="Layer_1" xmlns="http://www.w3.org/2000/svg" xmlns:xlink="http://www.w3.org/1999/xlink" x="0px" y="0px"
	 width="1160px" height="148px" viewBox="0 0 1160 148" enable-background="new 0 0 1160 148" xml:space="preserve">
<path id="path4607_1_" fill="#CCCCCC" d="M1168.377,126.617l-0.17-16.779h-7.871v15.967h-4.294v-19.697h-7.396v14.721h-5.965v-11.61
	h-6.438v10.989h-5.963v-14.723c0,0-5.016-11.611-9.065,0c0,4.354,0,14.723,0,14.723h-1.19V95.529l-8.021,4.025v21.995h-3.428V99.676
	h-1.907v-3.732h-5.846v3.109h-2.861v21.979h-3.102v-17.313l-1.67-0.104l-1.789-10.887l-1.909,10.989h-2.384v17.312l-2.507-0.206
	V97.812l-4.802-7.229l-4.384,0.07l-5.226,7.865v22.928h-5.632V94.492h-8.469v26.854h-2.022V96.773h-6.684v23.535h-0.954V99.575
	l-6.264,1.459v19.379h-6.977V96.67l-2.196-3.311l-2.284,3.438v23.301h-6.49V95.529h-7.152v24.156h-1.437V92.938h-11.562v26.229
	h-4.647v-14.724h-6.562v13.996h-0.951V92.316h-7.755v26.334h-2.146V94.492h-9.423v24.572h-4.414V94.721h-2.806v-6.6h-4.979v6.6
	h-3.627v24.484h-4.722v-16.422h-8.016v16.496h-7.506V96.773c0,0-4.388-4.689-9.951-0.515c0.085,2.271,0,23.24,0,23.24h-1.854v-19.72
	h-5.733l-5.795,18.801h-2.977v-8.098l-1.27-2.713l-1.098,2.713h-6.238l-0.719-2.465l-1.104,2.455v8.036h-4.205v-12.426h-5.229v12.17
	h-2.4V97.141h-7.42v20.82h-5.229V94.062h-8.268v5.133h-3.034V93.33h-7.423v24.486h-2.021v-14.957h-4.892v14.518h-3.375V98.168
	h-5.563v18.912h-5.563V93.77h-6.408l0.338,32.695L1168.377,126.617z"/>
<path id="path6551_1_" fill="#CCCCCC" d="M506.967,131.619l0.17-16.779h7.871v15.967h4.294v-19.697h7.396v14.721h5.964v-11.609
	h6.438v10.986h5.966v-14.721c0,0,5.012-11.613,9.062,0c0,4.354,0,14.721,0,14.721h1.19v-24.674l8.021,4.023v21.998h3.428V104.68
	h1.907v-3.73h5.846v3.107h2.86v21.979h3.104v-17.312l1.672-0.104l1.787-10.888l1.907,10.99h2.387v17.312l2.508-0.207l2.588-25.826
	l3.29-4.414l3.305,0.07l3.785,4.364l1.438,26.429h5.631V99.494h8.471v26.854h2.023v-24.568h6.684v23.535h0.955v-20.736l6.262,1.459
	v19.382h6.979v-23.742l2.194-3.31l2.282,3.438v23.301h6.493v-24.569h7.153v24.155h1.435v-26.75h11.565v26.23h4.649v-14.724h6.562
	v13.995h0.953V97.318h7.752v26.334h2.147V99.494h9.42v24.572h4.412V99.723h2.808v-6.598h4.979v6.598h3.627v24.486h4.722v-16.423
	h8.014v16.493h7.509v-22.506c0,0,4.385-4.689,9.947-0.515c-0.084,2.271,0,23.24,0,23.24h1.854v-19.722h5.733l5.798,18.804h2.975
	v-8.101l1.266-2.713l1.101,2.713h6.24l0.718-2.467l1.104,2.457v8.037h4.205v-12.426H787v12.17h2.399v-21.115h7.423v20.82h5.229
	V99.064h8.264v5.131h3.037v-5.864h7.422v24.485h2.022v-14.955h4.892v14.518h3.374V103.17h5.565v18.914h5.562V98.771h6.408
	l-0.337,32.694L506.967,131.619z"/>
<path id="path6553_1_" fill="#CCCCCC" d="M214.763,128.596l0.169-16.779h7.872v15.967h4.292v-19.696h7.395v14.722h5.963v-11.611
	h6.441v10.99h5.962v-14.724c0,0,5.011-11.61,9.065,0c0,4.354,0,14.724,0,14.724h1.192v-24.68l8.021,4.025v21.996h3.428v-21.875
	h1.909v-3.73h5.843v3.107h2.863v21.979h3.101v-17.312l1.669-0.104l1.79-10.887l1.909,10.988h2.385v17.313l2.505-0.207V99.789
	l4.799-7.227l4.384,0.071l5.224,7.863v22.928h5.63V96.471h8.468v26.854h2.027v-24.57h6.679v23.533h0.954v-20.734l6.264,1.459v19.381
	h6.976V98.648l2.197-3.31l2.283,3.438v23.301h6.492v-24.57h7.156v24.156h1.431V94.916h11.569v26.229h4.65v-14.722h6.56v13.996h0.955
	V94.295h7.751v26.334h2.146V96.471h9.423v24.572h4.413V96.699h2.809v-6.6h4.976v6.6h3.626v24.486h4.726v-16.422h8.01v16.493h7.507
	V98.752c0,0,4.387-4.689,9.95-0.514c-0.082,2.271,0,23.238,0,23.238h1.855v-19.722h5.734l5.796,18.802h2.975v-8.099l1.267-2.712
	l1.097,2.712h6.242l0.715-2.466l1.104,2.455v8.037h4.207v-12.428h5.229v12.172h2.401V99.117h7.425v20.82h5.229V96.039h8.268v5.133
	h3.033v-5.865h7.426v24.486h2.021v-14.955h4.893v14.518h3.375v-19.209h5.563v18.912h5.565V95.746h6.407l-0.338,32.695
	L214.763,128.596z"/>
<path id="path6557_1_" fill="#B3B3B3" d="M27.972,131.93l0.169-16.779h7.871v15.965h4.293v-19.699H47.7v14.725h5.963v-11.611h6.441
	v10.99h5.963v-14.724c0,0,5.009-11.61,9.064,0c0,4.354,0,14.724,0,14.724h1.192v-24.677l8.021,4.024v21.996h3.428v-21.875h1.909
	v-3.729h5.843v3.108h2.863v21.979h3.101v-17.316l1.669-0.104l1.79-10.888l1.908,10.989h2.385v17.313l2.505-0.209v-23.019l4.8-7.227
	l4.384,0.072l5.223,7.861v22.932h5.63V99.797h8.468v26.854h2.027v-24.568h6.68v23.532h0.954v-20.732l6.263,1.459v19.38h6.976v-23.74
	l2.197-3.308l2.283,3.438v23.301h6.491v-24.568h7.156v24.154h1.432V98.25h11.568v26.229h4.651v-14.723h6.561v13.996h0.954V97.629
	h7.752v26.332h2.147V99.805h9.422v24.57h4.413v-24.344h2.807v-6.6h4.976v6.6h3.626v24.484h4.722v-16.42h8.012v16.493h7.505v-22.506
	c0,0,4.386-4.69,9.952-0.515c-0.085,2.271,0,23.238,0,23.238h1.856v-19.721h5.734l5.795,18.803h2.975v-8.1l1.265-2.713l1.097,2.713
	h6.239l0.718-2.467l1.105,2.457v8.037h4.208v-12.426h5.228v12.168h2.403v-21.111h7.422v20.82h5.228V99.373h8.264v5.133h3.036v-5.867
	h7.422v24.486h2.024V108.17h4.891v14.518h3.373v-19.209h5.565v18.914h5.568V99.08h6.408l-0.338,32.695L27.972,131.93z"/>
<rect id="rect2693_1_" y="120.602" fill="#7F7E7F" width="1170.009" height="21.168"/>
<rect id="rect3848_1_" x="0.001" y="138.613" fill="#6A6A6A" width="1169.999" height="11.123"/>
<path id="tree03_1_" fill="#515051" stroke="#6A6A6A" stroke-width="0.1366" d="M150.006,120.826l0.956-0.07l3.141,0.439
	c0.549,0.156,0.834,0.514,1.366,0.676l1.229,0.146c0.409,0.104,1.579,0.891,1.883,1.198c0.323,0.328,0.957,1.429,1.035,1.884
	c0.01,0.444-0.302,0.936,0,1.282c0.346,0.326,0.884,0.115,1.439,0.418c0.504,0.272,0.67,0.746,1.02,1.162
	c0.538,0.644,1.473,1.213,1.416,2.188c-0.074,1.252-2.483,0.69-2.947,1.92c-0.399,1.053,2.23,0.895,1.801,2.174
	c-0.326,0.977-1.772,0.785-2.507,1.062l-1.775,1.016c-0.418,0.188-0.881,0.545-1.341,0.271c-0.812-0.481-0.624-1.495-0.79-1.935
	c-0.15-0.396-0.515-0.682-0.874-0.885c-0.269-0.149-0.631-0.312-0.938-0.182c-0.533,0.229-1.254,1.262-1.327,1.846l-0.686,3.498
	c-0.105,0.486,0.084,1.062,0.083,1.594c0,0.297,0.028,0.703-0.14,0.953c-0.489,0.146-0.759,0.244-1.317-0.143
	c-0.284-0.605,0.052-0.893,0.135-1.58c0.027-0.832,0.123-2.162,0.088-3.057l-0.113-0.955l-0.127-0.686
	c-0.043-0.136-0.101-0.281-0.176-0.398c-0.818-1.311-1.941,0.531-2.458,0.809c-0.255,0.139-0.525,0.139-0.807,0.115
	c-0.411-0.033-1.017-0.137-1.366-0.354c-0.357-0.219-0.708-0.662-1.092-0.744c-0.615-0.131-2.383,1.326-2.648-0.111
	c-0.027-0.139-0.008-0.271,0-0.406c0.048-0.668,0.15-1.42-0.161-2.043c-0.412-0.824-0.59-0.281-1.333-2.055
	c-0.104-0.248-0.269-0.553-0.297-0.816c-0.108-1.037,1.359-1.559,1.626-2.197c0.205-0.395,0.017-0.69,0-1.08
	c-0.067-0.407,0.139-1.26,0.314-1.627c0.214-0.455,0.571-0.6,0.889-0.991c0.312-0.386,0.459-0.896,0.94-1.104
	c0.424-0.18,0.896,0,1.489-0.354c0.615-0.367,0.831-0.844,1.639-1.271C148.29,120.203,149.195,120.77,150.006,120.826
	L150.006,120.826z"/>
<path id="tree04_1_" fill="#515051" stroke="#6A6A6A" stroke-width="0.159" d="M419.252,115.521c0.805,0.078,1.248-0.365,2,0.266
	c0.354,0.3,0.885,0.938,1.066,1.363c0.215,0.496,0.252,1.314,0.78,1.631c0.727,0.431,1.093-0.981,2.018-0.703
	c0.676,0.207,0.661,1.05,0.648,1.615c-0.034,1.816-1.239,3.271-1.084,4.447c0.138,1.037,1.603,1.203,1.524,2.543
	c-0.048,0.844-0.817,0.895-1.695,1.768c-1,1-1.361,1.92-1.898,3.166c-0.164,0.383-0.369,1.258-0.613,1.496
	c-0.484,0.474-1.168,0.002-1.786,0.219c-0.47,0.164-0.694,0.576-1.134,0.843c-0.826,0.496-2.644,0.649-3.137,1.597
	c-0.157,0.371-0.027,1.987,0,2.524c-0.029,0.413,0.002,1.177-0.234,1.521c-0.104,0.153-0.241,0.252-0.432,0.252
	c-0.723,0-0.636-1.142-0.636-1.611v-2.227c-0.032-1.74-1.006-1.576-2.227-2.103l-1.433-0.739c-0.519-0.275-1.075-0.771-1.59-0.906
	c-0.641-0.172-1.707,0.102-2.067-0.347c-0.433-0.534,0.187-1.942-0.115-2.743c-0.251-0.668-0.941-1.093-1.288-1.748
	c-0.188-0.354-0.631-1.83-0.633-2.229l0.146-1.271c-0.066-0.612-0.586-1.01-0.582-1.59c0.007-0.688,0.641-0.912,1.157-1.908
	c0.445-0.858,0.83-2.146,1.507-2.828c1.029-1.041,1.945-0.975,2.987-1.418c0.493-0.207,1.347-0.993,2.544-1.467
	c0.485-0.19,1.07-0.188,1.59-0.264C416.312,114.475,418.38,115.434,419.252,115.521z"/>
<path id="path6593_1_" fill="#515051" stroke="#6A6A6A" stroke-width="0.1069" d="M1025.876,122.262l0.748-0.057l2.458,0.346
	c0.43,0.123,0.649,0.398,1.064,0.527l0.962,0.115c0.318,0.082,1.234,0.695,1.478,0.938c0.252,0.256,0.748,1.115,0.811,1.475
	c0.008,0.35-0.232,0.73,0,1.004c0.271,0.254,0.69,0.09,1.126,0.324c0.396,0.217,0.524,0.584,0.8,0.91
	c0.422,0.502,1.15,0.949,1.105,1.711c-0.058,0.979-1.939,0.541-2.306,1.502c-0.312,0.824,1.744,0.699,1.407,1.701
	c-0.257,0.764-1.39,0.613-1.963,0.832l-1.391,0.795c-0.327,0.146-0.688,0.428-1.05,0.211c-0.636-0.377-0.488-1.17-0.617-1.512
	c-0.116-0.311-0.4-0.533-0.685-0.689c-0.212-0.119-0.493-0.246-0.733-0.143c-0.417,0.178-0.979,0.984-1.039,1.441l-0.536,2.736
	c-0.083,0.381,0.066,0.829,0.065,1.245c0,0.231,0.021,0.552-0.109,0.746c-0.383,0.11-0.594,0.19-1.03-0.108
	c-0.223-0.478,0.041-0.697,0.105-1.236c0.021-0.65,0.096-1.689,0.064-2.391l-0.089-0.748l-0.101-0.535
	c-0.034-0.104-0.079-0.221-0.139-0.312c-0.643-1.021-1.521,0.418-1.926,0.633c-0.196,0.105-0.41,0.107-0.632,0.092
	c-0.319-0.022-0.796-0.104-1.067-0.272c-0.277-0.173-0.556-0.519-0.854-0.582c-0.479-0.104-1.864,1.034-2.071-0.091
	c-0.021-0.104-0.006-0.211,0-0.314c0.037-0.521,0.117-1.109-0.127-1.602c-0.318-0.646-0.461-0.221-1.043-1.605
	c-0.08-0.193-0.21-0.434-0.229-0.643c-0.084-0.812,1.062-1.219,1.271-1.721c0.159-0.309,0.014-0.541,0-0.846
	c-0.053-0.318,0.108-0.984,0.246-1.271c0.166-0.354,0.445-0.469,0.694-0.776c0.244-0.302,0.355-0.702,0.732-0.86
	c0.331-0.144,0.701-0.002,1.165-0.277c0.48-0.289,0.649-0.656,1.282-0.99C1024.533,121.775,1025.241,122.217,1025.876,122.262
	L1025.876,122.262z"/>
<path id="path3094_1_" fill="#6A6A6A" stroke="#6A6A6A" stroke-width="0.1296" d="M1015.547,139.668l-0.044-14.125
	c0,0,1.208-0.162,1.854-0.914c0-0.105,0-37.426,0-37.426h-12.78c0,0,0,37.316,0,37.426c0.645,0.752,1.853,0.914,1.853,0.914v13.936
	C1008.538,141.307,1013.432,140.857,1015.547,139.668z"/>
<path id="path3096_1_" fill="#6A6A6A" stroke="#6A6A6A" stroke-width="0.1296" d="M1008.434,87.229l-0.041-19.625h5.09l0.017,19.621
	L1008.434,87.229L1008.434,87.229z"/>
<path id="path3098_1_" fill="#6A6A6A" stroke="#6A6A6A" stroke-width="0.1296" d="M1005.109,83.836v1.385h11.729v-1.402
	L1005.109,83.836z"/>
<path id="path3100_1_" fill="#6A6A6A" stroke="#6A6A6A" stroke-width="0.1296" d="M1005.166,79.887v1.387h11.729v-1.404
	L1005.166,79.887z"/>
<path id="path3102_1_" fill="#6A6A6A" stroke="#6A6A6A" stroke-width="0.1296" d="M1005.09,75.938v1.388h11.731V75.92
	L1005.09,75.938z"/>
<path id="path3104_1_" fill="#6A6A6A" stroke="#6A6A6A" stroke-width="0.1296" d="M1005.204,71.97v1.386h3.312h8.416v-1.404
	L1005.204,71.97z"/>
<path id="path3106_1_" fill="#6A6A6A" stroke="#6A6A6A" stroke-width="0.1296" d="M1005.109,67.946v1.387h11.729v-1.405
	L1005.109,67.946z"/>
<path id="path3108_1_" fill="#6A6A6A" stroke="#6A6A6A" stroke-width="0.1296" d="M1013.576,67.583c0,0,3.188-0.114,3.797-0.531
	c-0.021-0.987-0.021-1.006-0.021-1.006s-0.188-0.19-0.76-0.285c-0.057,0.019-0.037-0.247-0.037-0.247h0.531l0.246-0.247v-4.025
	h0.342c0,0,0.213-0.115,0.287-0.311c0-0.222,0-5.229,0-5.229s-0.282-0.329-0.651-0.442c0.021-0.021,0-3.564,0-3.564
	c-0.399-0.663-2.228-0.904-3.448-1.066l0.011-0.275c0,0,1.061-0.074,1.248-0.302c0.02,0,0.389-0.329,0.405-0.463
	c0.018-0.027,0-2.45,0-2.45c-0.143-0.247-1.231-0.678-2.231-0.745l-4.651,0.003c-0.999,0.067-2.093,0.498-2.229,0.745
	c0,0-0.019,2.423,0,2.45c0.02,0.134,0.389,0.463,0.405,0.463c0.188,0.229,1.248,0.302,1.248,0.302l0.009,0.275
	c-1.225,0.164-3.047,0.403-3.447,1.066c0,0-0.021,3.544,0,3.564c-0.369,0.114-0.651,0.442-0.651,0.442s0,5.008,0,5.229
	c0.074,0.194,0.287,0.311,0.287,0.311h0.342v4.024l0.246,0.247h0.531c0,0,0.021,0.266-0.037,0.247
	c-0.57,0.095-0.76,0.285-0.76,0.285s0,0.019-0.021,1.006c0.607,0.417,3.798,0.532,3.798,0.532L1013.576,67.583L1013.576,67.583z"/>
<path id="path3110_1_" fill="#6A6A6A" stroke="#6A6A6A" stroke-width="0.1296" d="M1005.472,83.807v-0.268h-0.696l-0.119,0.402
	l-0.809,0.014l-0.16-0.752v-0.775l0.146-0.51l0.816-0.027l0.199,0.27v1.145l0.913,0.023l0.015,0.443L1005.472,83.807z"/>
<path id="path3112_1_" fill="#6A6A6A" stroke="#6A6A6A" stroke-width="0.1296" d="M1005.24,79.818V79.55h-0.698l-0.121,0.4
	l-0.806,0.016l-0.16-0.752v-0.776l0.146-0.511l0.818-0.026l0.201,0.271v1.141l0.913,0.027l0.014,0.439L1005.24,79.818z"/>
<path id="path3114_1_" fill="#6A6A6A" stroke="#6A6A6A" stroke-width="0.1296" d="M1005.405,75.928v-0.27h-0.697l-0.121,0.402
	l-0.807,0.014l-0.16-0.752v-0.776l0.146-0.511l0.818-0.026l0.201,0.269v1.142l0.911,0.025l0.015,0.44L1005.405,75.928z"/>
<path id="path3116_1_" fill="#6A6A6A" stroke="#6A6A6A" stroke-width="0.1296" d="M1006.588,71.945v-0.268h-0.698l-0.12,0.402
	l-0.807,0.014l-0.16-0.751v-0.779l0.147-0.51l0.813-0.027l0.202,0.27v1.141l0.912,0.027l0.015,0.442L1006.588,71.945z"/>
<path id="path3118_1_" fill="#6A6A6A" stroke="#6A6A6A" stroke-width="0.1296" d="M1016.049,77.779h-0.966
	c0,0-1.168,0.848-0.04,2.016c0.023-0.041,1.262,0.053,1.262,0.053S1017.379,78.6,1016.049,77.779z"/>
<path id="path3120_1_" fill="#6A6A6A" stroke="#6A6A6A" stroke-width="0.1296" d="M1016.118,81.891h-0.97
	c0,0-1.168,0.848-0.041,2.016c0.026-0.041,1.266,0.056,1.266,0.056S1017.446,82.709,1016.118,81.891L1016.118,81.891z"/>
<path id="path3122_1_" fill="#6A6A6A" stroke="#6A6A6A" stroke-width="0.1166" d="M1016.104,74.025h-0.772
	c0,0-0.939,0.852-0.033,2.025c0.021-0.041,1.017,0.056,1.017,0.056S1017.172,74.85,1016.104,74.025z"/>
<path id="path3124_1_" fill="#6A6A6A" stroke="#6A6A6A" stroke-width="0.1104" d="M1014.946,70.699h-0.691
	c0,0-0.841,0.854-0.028,2.032c0.021-0.041,0.906,0.054,0.906,0.054S1015.903,71.526,1014.946,70.699L1014.946,70.699z"/>
<path id="path3126_1_" fill="#6A6A6A" stroke="#6A6A6A" stroke-width="0.1218" d="M1007.28,74.35h-0.854c0,0-1.026,0.85-0.035,2.021
	c0.023-0.041,1.111,0.055,1.111,0.055S1008.449,75.172,1007.28,74.35L1007.28,74.35z"/>
<path id="path3128_1_" fill="#6A6A6A" stroke="#6A6A6A" stroke-width="0.134" d="M1007.556,78.172h-0.964
	c0,0-1.166,0.904-0.041,2.156c0.027-0.043,1.26,0.059,1.26,0.059S1008.882,79.049,1007.556,78.172z"/>
<path id="path3130_1_" fill="#6A6A6A" stroke="#6A6A6A" stroke-width="0.1263" d="M1007.364,82.021h-0.92
	c0,0-1.104,0.849-0.035,2.019c0.021-0.04,1.194,0.056,1.194,0.056S1008.625,82.842,1007.364,82.021z"/>
<path id="path3132_1_" fill="#6A6A6A" stroke="#6A6A6A" stroke-width="0.1429" d="M1009.13,36.417l3.688,0.049l-0.117,1.359h-3.604
	L1009.13,36.417L1009.13,36.417z"/>
<path id="path3134_1_" fill="#6A6A6A" stroke="#6A6A6A" stroke-width="0.1869" d="M1012.558,39.244h-3.065l0.002,1.365h3.044
	L1012.558,39.244L1012.558,39.244z"/>
<path id="path3136_1_" fill="#6A6A6A" stroke="#6A6A6A" stroke-width="0.2013" d="M1009.683,42.164h2.587v1.499h-2.578
	L1009.683,42.164z"/>
<path id="path3138_1_" fill="#6A6A6A" stroke="#6A6A6A" stroke-width="0.2" d="M1010.057,44.848h1.863v0.829h-1.876L1010.057,44.848
	L1010.057,44.848z"/>
<path id="path3140_1_" fill="none" stroke="#6A6A6A" stroke-width="0.324" d="M1009.939,46.467l-0.884-9.985l3.815,0.057
	l-0.896,9.938L1009.939,46.467z"/>
<path id="path3142_1_" fill="none" stroke="#6A6A6A" stroke-width="0.311" d="M1011.061,36.348v-6.854"/>
<path id="path3090_1_" fill="#6A6A6A" stroke="#6A6A6A" stroke-width="0.1635" d="M978.089,139.166
	c-0.167,0.596-0.896,1.43-0.956,1.479c-5.033,4.002-18.341,4.676-25.574-0.496c-0.284-0.203-1.564-1.821-1.564-1.864
	c-1.303-11.123-9.135-79.204,12.658-105.559c-0.154-0.156,2.351-0.156,2.351-0.156C987.97,55.717,979.205,139.035,978.089,139.166z"
	/>
<path id="path3295_1_" fill="#6A6A6A" d="M788.592,89.621c0.001,0.355-0.341,0.646-0.762,0.646c-0.422,0-0.768-0.289-0.766-0.646
	c-0.002-0.355,0.344-0.646,0.766-0.646C788.251,88.975,788.593,89.264,788.592,89.621z"/>
<path id="path3297_1_" fill="#6A6A6A" stroke="#6A6A6A" stroke-width="2.4423" d="M787.737,89.146l0.051-2.049l0.074,2.043
	L787.737,89.146L787.737,89.146z"/>
<path id="path3299_1_" fill="#6A6A6A" d="M788.085,90.066c-0.085,0.349,0.142,2.485,0.173,2.494
	c2.621,0.668,2.976,2.976,2.976,2.976l0.711,0.009l-0.001,1.301h-0.747l-0.041,9.901l-6.639-0.013l0.017-9.814h-0.715v-1.388
	l0.68-0.007c0,0,0.167-2.448,2.783-2.889c0.031-0.007,0.353-2.169,0.268-2.519L788.085,90.066L788.085,90.066z"/>
<path id="path3303_1_" fill="#6A6A6A" stroke="#6A6A6A" stroke-width="0.8839" d="M777.742,86.02c0,0.355-0.345,0.646-0.768,0.646
	c-0.421,0-0.763-0.289-0.763-0.646c0-0.357,0.342-0.646,0.763-0.646C777.4,85.371,777.742,85.662,777.742,86.02z"/>
<path id="path3305_1_" fill="#6A6A6A" stroke="#6A6A6A" stroke-width="2.4423" d="M776.888,85.543l0.048-2.049l0.077,2.043
	L776.888,85.543L776.888,85.543z"/>
<path id="path3307_1_" fill="#6A6A6A" stroke="#6A6A6A" stroke-width="0.8276" d="M777.234,86.465
	c-0.085,0.35,0.145,2.484,0.177,2.494c2.62,0.668,2.973,2.975,2.973,2.975l0.711,0.008l-0.001,1.303h-0.747l-0.041,9.902
	l-6.637-0.014l0.014-9.814h-0.713l-0.001-1.389l0.678-0.006c0,0,0.168-2.449,2.786-2.891c0.032-0.006,0.354-2.166,0.269-2.514
	L777.234,86.465L777.234,86.465z"/>
<path id="path3310_1_" fill="#6A6A6A" stroke="#6A6A6A" stroke-width="0.8839" d="M818.028,85.973c0,0.355-0.341,0.646-0.765,0.646
	c-0.421,0-0.763-0.289-0.763-0.646c0-0.356,0.342-0.646,0.763-0.646C817.688,85.326,818.028,85.615,818.028,85.973z"/>
<path id="path3312_1_" fill="#6A6A6A" stroke="#6A6A6A" stroke-width="0.2088" d="M817.174,85.496l0.048-2.047l0.077,2.043
	L817.174,85.496L817.174,85.496z"/>
<path id="path3316_1_" fill="#6A6A6A" stroke="#6A6A6A" d="M808.499,89.396c0,0.326-0.328,0.594-0.734,0.594
	c-0.403,0-0.729-0.268-0.729-0.594c-0.001-0.326,0.325-0.594,0.729-0.594C808.171,88.803,808.499,89.068,808.499,89.396z"/>
<path id="path3318_1_" fill="#6A6A6A" stroke="#6A6A6A" stroke-width="2.3223" d="M807.676,88.959l0.047-1.881l0.074,1.877
	L807.676,88.959L807.676,88.959z"/>
<path id="path3321_1_" fill="#6A6A6A" stroke="#6A6A6A" d="M808.011,89.805c-0.083,0.32,0.136,2.283,0.167,2.291
	c2.523,0.613,2.862,2.73,2.862,2.73l0.685,0.008l-0.001,1.193h-0.72l-0.039,9.098l-6.391-0.014l0.014-9.019H803.9l-0.001-1.271
	l0.65-0.006c0,0,0.16-2.25,2.687-2.654c0.027-0.006,0.338-1.988,0.256-2.311L808.011,89.805L808.011,89.805z"/>
<path id="path3323_1_" fill="#6A6A6A" stroke="#000000" stroke-width="0.0708" d="M817.537,86.525
	c-0.086,0.35,0.141,2.483,0.173,2.492c2.621,0.668,2.974,2.978,2.974,2.978l0.711,0.007l-0.002,1.303h-0.746l-0.041,9.899
	l-6.637-0.013l0.014-9.812h-0.714l-0.001-1.388l0.68-0.007c0,0,0.17-2.448,2.786-2.892c0.03-0.004,0.353-2.166,0.268-2.516
	L817.537,86.525L817.537,86.525z"/>
<path id="path3325_1_" fill="#6A6A6A" stroke="#6A6A6A" stroke-width="0.0696" d="M827.314,103.521c0,0,0.003-1.433,0.001-1.429
	c-0.188-0.131-1.229-0.209-1.229-0.209v1.779l-1.104-0.142l-0.018-1.684c-0.674-0.105-0.962-0.143-1.595-0.164l0.011,1.615
	l-1.188-0.141v-1.519c-0.877-0.024-1.508-0.032-1.508-0.032l0.021,1.512l-1.723-0.01h-1.524v-1.604h-2.374l0.021,1.624l-1.508-0.009
	v-1.604l-2.336,0.009l-0.006,1.621l-1.516-0.009v-1.603h-2.374l0.011,1.627l-1.496-0.01v-1.604h-2.374l0.021,1.619l-1.509-0.002
	v-1.604h-2.374l0.021,1.625l-1.506-0.005v-1.604h-2.374l0.011,1.621l-1.496-0.002v-1.604h-2.373l0.021,1.625l-1.5-0.007v-1.604
	h-2.373l0.021,1.623l-1.506-0.009v-1.604h-2.374v1.597h-1.512v-1.558h-9.043l0.07,26.488c-0.079,0.018,43.94-0.141,44.021-0.141
	c0,0,9.021-0.13,9.538-1.229C827.33,126.293,827.314,103.555,827.314,103.521L827.314,103.521z"/>
<path id="path3056_1_" fill="#6A6A6A" stroke="#6A6A6A" stroke-width="0.24" d="M770.784,133.203l-0.015-2.861
	c0,0-0.562-0.098-0.526-0.311c0.03-0.211,0.351-0.059,0.44-0.316c0.309-0.832-0.146-1.439-0.96-1.455
	c-0.896,0.004-1.296,0.629-0.99,1.461c0.098,0.262,0.413,0.105,0.443,0.316c0.032,0.215-0.528,0.311-0.528,0.311l-0.023,2.709v0.158
	L770.784,133.203L770.784,133.203z"/>
<path id="path2235_1_" fill="#6A6A6A" d="M600.168,126.199c-2.217,2.256-20.388,3.881-24.773,0.287
	c0.027,0.016-0.855-2.459-0.855-2.459s-1.286-0.213-1.383-0.512c0.005,0.062-0.191-1.779-0.191-1.779s-1.634-0.098-1.837-0.322
	c-0.006,0.012-0.208-3.166-0.208-3.166s-1.146-0.053-1.312-0.295c-0.015,0.041-0.015-1.857-0.015-1.857
	c0.02,0.014-0.894,0.098-1.194-0.229c-0.021,0.002-0.061-2.623-0.061-2.623s-0.648,0.068-0.896-0.188
	c-0.015-0.119-0.03-2.541-0.03-2.541c-0.789-0.054-0.688-0.375-0.688-0.375l0.083-2.324c-0.25-0.039-0.599-0.325-0.56-0.45
	l0.143-2.332c-0.375-0.173-0.43-0.571-0.43-0.646l0.234-2.13c0,0-0.021,0.041-0.233-0.116c-0.096-0.084,0.18-1.754,0.292-1.826
	c0.386-0.482,0.019,0.1-0.217-0.607c-0.025-0.154,0.323-2.314,0.756-2.521c0.215-0.062,3.252-0.608,4.9-0.646
	c-0.052,0.021,3.854,0,3.854,0s6.541,0.711,9.375,2.245c-0.214-0.149,4.679,2.539,5.415,3.054c-0.021-0.021,5.768,4.502,7.521,8.014
	c-0.057-0.106,2.169,3.938,2.556,5.547c-0.02-0.084,0.719,1.938,1.105,3.773c0.241,1.146,0.336,1.85,0.432,2.549
	c0.055,0.055-1.536,0.951-1.728,0.838l-0.022,2.506v0.248L600.168,126.199z"/>
<path id="path3146_1_" fill="#6A6A6A" d="M545.527,134.215c0,0-16.948,0.586-17.719,0.09c-0.09,0.045-1.553,1.439-2.159,2.682
	c0.021-0.065-0.768-0.09-0.768-0.09s0.599-1.74,0.454-2.25c-0.048,0.062-2.896-0.59-3.74-0.686c0.063,0.029-0.796,0.127-1.112,2.625
	c0.019-0.098-0.729-0.018-0.729-0.018s0-2.498-0.828-2.851c-0.031-0.019-10.259-1.513-13.771-2.293c0,0-2.416,1.005-3.185,1.959
	c-0.382-0.157-0.382-0.157-0.382-0.157s2.021-2.23,1.942-2.945c-0.053-0.018,0.063-0.687-1.133-0.543
	c-0.019,0.012-2.89,1.953-3.261,2.459l-0.312-0.242c0,0,1.768-3.021,1.065-3.721c-0.021-0.021-1.666-2.062-2.687-1.887
	c0.062-0.048-4.348,1.368-4.348,1.368l-0.029-0.265c0,0,2.025-1.217,1.966-1.297c0,0-2.174,0.479-2.188,0.66
	c-0.03-0.158-0.045-0.203-0.045-0.203l3.567-3.026c0.337-0.313,4.901-3.562,11.585-6.664c0.66-0.31,9.41-5.25,26.338-5.312
	c-0.095,0,18.918-1.06,35.262,12c0,0,1.282,1.396,2.345,2.295c0.045,0.135-0.157,0.065-0.157,0.065s-2.882-1.418-3.399-0.448
	c-0.021,0-0.676,1.53-0.062,2.701c0.604,1.172,1.82,2.883,1.82,2.883l-0.154,0.09c0,0-2.589-2.881-3.808-2.543
	c0.11,0.045-1.308,0.203,1.911,3.375c0.023,0-0.2,0.203-0.2,0.203s-2.901-2.318-4.026-2.16c-0.946,0.227-10.063,2.68-10.063,2.68
	s-0.786,1.732-0.312,2.971c-0.09,0.021-0.476,0.158-0.476,0.158s-1.19-2.521-1.601-2.521c-0.878,0.09-3.397,0.722-3.397,0.722
	s0.431,1.823,0.812,2.298c-0.54,0.021-0.54,0.045-0.54,0.045S545.887,134.215,545.527,134.215L545.527,134.215z"/>
<path id="path3148_1_" fill="#6A6A6A" d="M508.023,116.949l-3.646-13.328l-0.136-2.609l1.306,2.521l3.917,12.605L508.023,116.949z"
	/>
<path id="path3150_1_" fill="#6A6A6A" d="M506.312,105.604l-0.271-3.558l1.306,2.836l2.974,11.302l-0.942,0.312L506.312,105.604z"/>
<path id="path3152_1_" fill="#6A6A6A" d="M512.48,114.834l-2.389-11.752l-0.225-2.701l0.986,2.564l2.976,11.525L512.48,114.834z"/>
<path id="path3154_1_" fill="#6A6A6A" d="M518.288,113.506l-1.125-7.496l0.045-3.422l1.125,3.287l1.171,7.607L518.288,113.506
	L518.288,113.506z"/>
<path id="path3156_1_" fill="#6A6A6A" d="M520.754,112.82l-1.021-9.771l0.099-2.771l0.828,3.088l1.178,9.424L520.754,112.82
	L520.754,112.82z"/>
<path id="path3158_1_" fill="#6A6A6A" d="M531.123,112.039l0.104-9.342l0.354-2.707l0.541,2.609l0.127,9.424L531.123,112.039
	L531.123,112.039z"/>
<path id="path3160_1_" fill="#6A6A6A" d="M534.411,111.676l0.156-5.125l0.767-3.756l0.637,3.979l-0.127,5.029L534.411,111.676z"/>
<path id="path3162_1_" fill="#6A6A6A" d="M541.733,112.121l0.985-9.01l0.731-2.801l0.188,3.215l-0.954,8.787L541.733,112.121z"/>
<path id="path3164_1_" fill="#6A6A6A" d="M549.469,113.648l1.656-7.672l1.271-3.47l-0.315,3.853l-1.437,7.77L549.469,113.648z"/>
<path id="path3166_1_" fill="#6A6A6A" d="M551.571,114.254l2.192-10.602l0.19-2.994l-1.05,3.121l-2.293,10.25L551.571,114.254z"/>
<path id="path3168_1_" fill="#6A6A6A" d="M556.409,115.973l3.403-11.236l1.272-2.674l-0.287,3.311l-3.022,11.334L556.409,115.973z"
	/>
<path id="path7342_1_" fill="#6A6A6A" stroke="#6A6A6A" d="M684.336,101.619l-26.097,0.01v-0.502c0,0,0.155-1.012-0.476-0.957
	c0.022-0.01-0.564-0.092-0.517,0.826l-1.271-0.014l-0.017-0.783c0,0,0.865-1.018-0.296-1.381c-0.59,0.236-0.585,0.801-0.243,1.307
	c0.162,0.238,0.062,0.613,0.062,0.873l-1.289,0.008c0,0,0.041-0.818-0.317-0.818c0,0-0.796-0.201-0.614,1.18h-26.33v3.896
	l57.576,0.102L684.336,101.619L684.336,101.619L684.336,101.619z"/>
<path id="path8345_1_" display="none" fill="#6A6A6A" stroke="#DC8BBA" stroke-width="3.3" d="M616.924,105.521
	c-16.784,16.761-25.183,24.522-46.654,25.19c0,0-16.812,0.961-26.24-6.203c0,0.043,0,0.043,0,0.043"/>
<path id="path11254_1_" fill="#6A6A6A" stroke="#6A6A6A" d="M610.5,109.881l-1.791,3.768"/>
<path id="path11256_1_" fill="#6A6A6A" stroke="#6A6A6A" d="M607.798,111.641l3.646-0.24"/>
<path id="path11258_1_" fill="#6A6A6A" stroke="#6A6A6A" d="M608.283,111.762l-1.337,3.281l0,0l0.119-0.094"/>
<path id="path11262_1_" fill="#6A6A6A" stroke="#6A6A6A" d="M601.466,116.697l3.768-0.271"/>
<path id="path11264_1_" fill="#6A6A6A" stroke="#6A6A6A" d="M600.691,117.137l-3.489,5.561"/>
<path id="path11266_1_" fill="#6A6A6A" stroke="#6A6A6A" d="M596.547,119.855l5.104,0.272"/>
<path id="path11268_1_" fill="#6A6A6A" stroke="#6A6A6A" d="M595.878,120.037l-3.401,5.74"/>
<path id="path11270_1_" fill="#6A6A6A" stroke="#6A6A6A" d="M592.143,122.012l4.467,1.701"/>
<path id="path11272_1_" fill="#6A6A6A" stroke="#6A6A6A" d="M591.354,122.559l-3.553,5.254"/>
<path id="path11274_1_" fill="#6A6A6A" stroke="#6A6A6A" d="M587.558,124.258l4.524,2.006"/>
<path id="path11276_1_" fill="#6A6A6A" stroke="#6A6A6A" d="M587.133,124.594l-3.888,4.584"/>
<path id="path11278_1_" fill="#6A6A6A" stroke="#6A6A6A" d="M583.094,126.232l4.068,1.793"/>
<path id="path11280_1_" fill="#6A6A6A" stroke="#6A6A6A" d="M581.696,126.84l-3.007,3.312"/>
<path id="path11282_1_" fill="#6A6A6A" stroke="#6A6A6A" d="M578.355,127.842l3.49,1.549"/>
<path id="path11284_1_" fill="#6A6A6A" stroke="#6A6A6A" d="M577.08,128.328c-0.121,0-2.793,2.188-2.793,2.188"/>
<path id="path11286_1_" fill="#6A6A6A" stroke="#6A6A6A" d="M574.104,128.844l2.979,1.43"/>
<path id="path11288_1_" fill="#6A6A6A" stroke="#6A6A6A" d="M573.224,129.238l-2.187,1.58"/>
<path id="path11290_1_" fill="#6A6A6A" stroke="#6A6A6A" stroke-width="2" d="M570.733,129.543l3.101,1.307"/>
<path id="path12267_1_" fill="#6A6A6A" stroke="#6A6A6A" stroke-width="2" d="M610.212,112.051v21.316"/>
<path id="path12269_1_" fill="#6A6A6A" stroke="#6A6A6A" stroke-width="2" d="M605.655,113.387v20.104"/>
<path id="path12271_1_" fill="#6A6A6A" stroke="#6A6A6A" stroke-width="2" d="M601.102,116.242v17.219"/>
<path id="path12273_1_" fill="#6A6A6A" stroke="#6A6A6A" stroke-width="2" d="M596.425,119.4v13.97"/>
<path id="path12275_1_" fill="#6A6A6A" stroke="#6A6A6A" stroke-width="2" d="M591.688,122.012v11.355"/>
<path id="path12277_1_" fill="#6A6A6A" stroke="#6A6A6A" stroke-width="2" d="M587.314,123.955v9.354l0.115-0.064l0.004,0.007"/>
<path id="path12279_1_" fill="#6A6A6A" stroke="#6A6A6A" stroke-width="2" d="M582.698,125.898v7.472"/>
<path id="path12281_1_" fill="#6A6A6A" stroke="#6A6A6A" stroke-width="2" d="M578.265,127.479v6.013"/>
<path id="path12283_1_" fill="#6A6A6A" stroke="#6A6A6A" stroke-width="2" d="M573.648,128.754v4.797"/>
<path id="path12376_1_" fill="#6A6A6A" stroke="#6A6A6A" d="M605.915,113.492l3.386-0.211"/>
<path id="path12378_1_" fill="#6A6A6A" stroke="#6A6A6A" d="M604.624,114.344l-2.794,5.07"/>
<path id="path7591_1_" fill="#6A6A6A" stroke="#6A6A6A" stroke-width="2" d="M564.873,133.285v-4.158"/>
<path id="path7593_1_" fill="#6A6A6A" stroke="#6A6A6A" stroke-width="2" d="M560.044,133.285v-4.77"/>
<path id="path7595_1_" fill="#6A6A6A" stroke="#6A6A6A" stroke-width="2" d="M555.487,133.193v-5.739"/>
<path id="path7597_1_" fill="#6A6A6A" stroke="#6A6A6A" stroke-width="2" d="M550.903,133.043v-6.955h0.121"/>
<path id="path7599_1_" fill="#6A6A6A" stroke="#6A6A6A" stroke-width="2" d="M546.47,132.859v-8.594"/>
<path id="path8572_1_" fill="#6A6A6A" stroke="#6A6A6A" d="M565.024,130.369l3.583-0.818"/>
<path id="path8574_1_" fill="#6A6A6A" stroke="#6A6A6A" d="M565.055,129.064l3.826,1.67"/>
<path id="path8576_1_" fill="#6A6A6A" stroke="#6A6A6A" d="M560.227,130.006l4.98-0.668"/>
<path id="path8578_1_" fill="#6A6A6A" stroke="#6A6A6A" d="M560.287,128.486l4.677,2.311v-0.029l0,0"/>
<path id="path8580_1_" fill="#6A6A6A" stroke="#6A6A6A" d="M555.549,129.338l4.373-0.729"/>
<path id="path8582_1_" fill="#6A6A6A" stroke="#6A6A6A" d="M555.61,127.516l4.188,2.73"/>
<path id="path8584_1_" fill="#6A6A6A" stroke="#6A6A6A" d="M550.994,128.273l4.434-0.851"/>
<path id="path8586_1_" fill="#6A6A6A" stroke="#6A6A6A" d="M551.024,126.027l4.372,3.341l0,0"/>
<path id="path8588_1_" fill="#6A6A6A" stroke="#6A6A6A" d="M546.53,126.422l4.251-0.363"/>
<path id="path8590_1_" fill="#6A6A6A" stroke="#6A6A6A" d="M546.651,124.236l4.067,3.826"/>
<path id="path8336_1_" fill="none" stroke="#6A6A6A" stroke-width="3.3" d="M616.664,104.646c0,0-23.911,22.211-46.465,24.769
	c0,0-11.734,0.994-26.493-6.418"/>
<path id="path11862_1_" display="none" fill="#6A6A6A" stroke="#DC8BBA" stroke-width="3.3" d="M694.188,105.621
	c16.783,16.762,25.187,24.523,46.654,25.191c0,0,16.813,0.961,26.241-6.203"/>
<path id="path11866_1_" fill="#6A6A6A" stroke="#DC8BBA" d="M700.612,109.979l1.791,3.767"/>
<path id="path11868_1_" fill="#6A6A6A" stroke="#DC8BBA" d="M703.312,111.74l-3.645-0.242"/>
<path id="path11870_1_" fill="#6A6A6A" stroke="#DC8BBA" d="M702.828,111.861l1.336,3.281l0,0l-0.121-0.093"/>
<path id="path11872_1_" fill="#6A6A6A" stroke="#DC8BBA" d="M709.646,116.797l-3.768-0.271"/>
<path id="path11874_1_" fill="#6A6A6A" stroke="#DC8BBA" d="M710.42,117.236l3.492,5.561"/>
<path id="path11876_1_" fill="#6A6A6A" stroke="#DC8BBA" d="M714.565,119.955l-5.104,0.273"/>
<path id="path11878_1_" fill="#6A6A6A" stroke="#DC8BBA" d="M715.233,120.137l3.399,5.74"/>
<path id="path11880_1_" fill="#6A6A6A" stroke="#6A6A6A" d="M718.969,122.111l-4.465,1.701"/>
<path id="path11882_1_" fill="#6A6A6A" stroke="#6A6A6A" d="M719.758,122.658l3.553,5.254"/>
<path id="path11884_1_" fill="#6A6A6A" stroke="#6A6A6A" d="M723.555,124.359l-4.521,2.005"/>
<path id="path11886_1_" fill="#6A6A6A" stroke="#6A6A6A" d="M723.979,124.693l3.892,4.584"/>
<path id="path11888_1_" fill="#6A6A6A" stroke="#6A6A6A" d="M728.018,126.334l-4.063,1.791"/>
<path id="path11890_1_" fill="#6A6A6A" stroke="#6A6A6A" d="M729.415,126.939l3.007,3.312"/>
<path id="path11892_1_" fill="#6A6A6A" stroke="#6A6A6A" d="M732.756,127.941l-3.492,1.55"/>
<path id="path11894_1_" fill="#6A6A6A" stroke="#6A6A6A" d="M734.03,128.428c0.119,0,2.795,2.188,2.795,2.188"/>
<path id="path11896_1_" fill="#6A6A6A" stroke="#6A6A6A" d="M737.007,128.943l-2.977,1.429"/>
<path id="path11898_1_" fill="#6A6A6A" stroke="#6A6A6A" d="M737.888,129.34l2.188,1.578"/>
<path id="path11900_1_" fill="#6A6A6A" stroke="#6A6A6A" stroke-width="2" d="M740.378,129.645l-3.098,1.307"/>
<path id="path11902_1_" fill="#6A6A6A" stroke="#6A6A6A" stroke-width="2" d="M700.899,112.15v21.317"/>
<path id="path11904_1_" fill="#6A6A6A" stroke="#6A6A6A" stroke-width="2" d="M705.455,113.486v20.104"/>
<path id="path11906_1_" fill="#6A6A6A" stroke="#6A6A6A" stroke-width="2" d="M710.01,116.342v17.221"/>
<path id="path11908_1_" fill="#6A6A6A" stroke="#6A6A6A" stroke-width="2" d="M714.688,119.5v13.969"/>
<path id="path11910_1_" fill="#6A6A6A" stroke="#6A6A6A" stroke-width="2" d="M719.424,122.111v11.356"/>
<path id="path11912_1_" fill="#6A6A6A" stroke="#6A6A6A" stroke-width="2" d="M723.797,124.055l0.052,7.811l-0.169,1.479
	l-0.004,0.006"/>
<path id="path11914_1_" fill="#6A6A6A" stroke="#6A6A6A" stroke-width="2" d="M728.413,126v7.469"/>
<path id="path11916_1_" fill="#6A6A6A" stroke="#6A6A6A" stroke-width="2" d="M732.847,127.578v6.014"/>
<path id="path11918_1_" fill="#6A6A6A" stroke="#6A6A6A" stroke-width="2" d="M737.463,128.854v4.797"/>
<path id="path11920_1_" fill="#6A6A6A" stroke="#6A6A6A" d="M705.196,113.594l-3.388-0.213"/>
<path id="path11922_1_" fill="#6A6A6A" stroke="#6A6A6A" d="M706.487,114.443l2.797,5.072"/>
<path id="path11924_1_" fill="#6A6A6A" stroke="#6A6A6A" stroke-width="2" d="M746.239,133.385v-4.16"/>
<path id="path11926_1_" fill="#6A6A6A" stroke="#6A6A6A" stroke-width="2" d="M751.067,133.385v-4.77"/>
<path id="path11928_1_" fill="#6A6A6A" stroke="#6A6A6A" stroke-width="2" d="M755.623,133.295v-5.74"/>
<path id="path11930_1_" fill="#6A6A6A" stroke="#6A6A6A" stroke-width="2" d="M760.208,133.143v-6.953h-0.121"/>
<path id="path11932_1_" fill="#6A6A6A" stroke="#6A6A6A" stroke-width="2" d="M764.643,132.961v-8.596"/>
<path id="path11934_1_" fill="#6A6A6A" stroke="#6A6A6A" d="M746.087,130.469l-3.583-0.818"/>
<path id="path11936_1_" fill="#6A6A6A" stroke="#6A6A6A" d="M746.057,129.164l-3.824,1.672"/>
<path id="path11938_1_" fill="#6A6A6A" stroke="#6A6A6A" d="M750.885,130.105l-4.979-0.668"/>
<path id="path11940_1_" fill="#6A6A6A" stroke="#6A6A6A" d="M750.824,128.588l-4.68,2.309v-0.029l0,0"/>
<path id="path11942_1_" fill="#6A6A6A" stroke="#6A6A6A" d="M755.562,129.438l-4.372-0.729"/>
<path id="path11944_1_" fill="#6A6A6A" stroke="#6A6A6A" d="M755.501,127.615l-4.19,2.732"/>
<path id="path11946_1_" fill="#6A6A6A" stroke="#6A6A6A" d="M760.117,128.375l-4.438-0.852"/>
<path id="path11948_1_" fill="#6A6A6A" stroke="#6A6A6A" d="M760.087,126.127l-4.373,3.34l0,0"/>
<path id="path11950_1_" fill="#6A6A6A" stroke="#6A6A6A" d="M764.581,126.521l-4.251-0.362"/>
<path id="path11952_1_" fill="#6A6A6A" stroke="#6A6A6A" d="M764.46,124.336l-4.069,3.824"/>
<path id="path11864_1_" fill="none" stroke="#6A6A6A" stroke-width="3.3" d="M694.176,103.861c0,0,24.184,23.095,46.736,25.652
	c0,0,11.73,0.991,26.493-6.418"/>
<path id="path11954_1_" fill="#6A6A6A" stroke="#6A6A6A" stroke-width="2.1378" d="M773.757,123.123l15.335,9.248"/>
<path id="path11956_1_" fill="#6A6A6A" stroke="#6A6A6A" stroke-width="2.1378" d="M773.135,123.639l14.529,8.977"/>
<path id="path2241_1_" fill="#6A6A6A" stroke="#6A6A6A" d="M570.737,133.771l-0.013-2.899c0,0-0.564-0.097-0.534-0.312
	c0.029-0.215,0.354-0.06,0.448-0.321c0.312-0.843-0.146-1.46-0.972-1.474c-0.907,0.004-1.312,0.637-1.004,1.479
	c0.096,0.265,0.418,0.107,0.451,0.322c0.027,0.215-0.537,0.312-0.537,0.312l-0.027,2.742v0.162L570.737,133.771L570.737,133.771z"/>
<path id="path2249_1_" fill="#6A6A6A" stroke="#6A6A6A" d="M742.475,133.758l-0.012-2.896c0,0-0.568-0.1-0.536-0.312
	c0.032-0.215,0.354-0.062,0.45-0.322c0.309-0.844-0.15-1.461-0.972-1.475c-0.907,0.004-1.312,0.637-1.007,1.479
	c0.099,0.265,0.419,0.106,0.449,0.321c0.032,0.216-0.537,0.312-0.537,0.312l-0.021,2.744v0.162L742.475,133.758L742.475,133.758z"/>
<path id="path10593_1_" fill="#6A6A6A" stroke="#6A6A6A" stroke-width="0.9041" d="M536.791,133.793l76.164,0.012l0.001-0.434l0,0
	c-0.007,0-67.755-0.145-76.169-0.148L536.791,133.793L536.791,133.793z"/>
<path id="path2253_1_" fill="#6A6A6A" stroke="#6A6A6A" stroke-width="0.9041" d="M536.798,131.172h76.296v1.447h-76.296V131.172
	L536.798,131.172z"/>
<path id="path2264_1_" fill="#6A6A6A" stroke="#6A6A6A" d="M695.409,130.859H831.51v1.505H695.271L695.409,130.859z"/>
<path id="path2266_1_" fill="#6A6A6A" stroke="#6A6A6A" d="M831.676,133.195c-0.012,0-133.908,0.146-133.908,0.146l0.014,0.502
	l133.396-0.479l0.334,0.5L831.676,133.195z"/>
<path id="path2291_1_" fill="#6A6A6A" stroke="#6A6A6A" d="M628.984,132.021l20.691-9.992l0,0l-20.022,11.343L628.984,132.021z"/>
<path id="path2296_1_" fill="#6A6A6A" stroke="#6A6A6A" stroke-width="3" d="M629.119,138.869
	c0.017,0.004,13.938-11.521,23.155-16.234l-0.936,0.729"/>
<path id="path3270_1_" fill="#6A6A6A" stroke="#6A6A6A" stroke-width="2.9" d="M631.557,136.766l-2.226-3.855l4.18,1.629
	l-1.354-2.786l3.96,0.94l-1.326-2.688l3.677,0.928l-1.092-2.285l3.461,0.66l-0.923-1.854l2.87,0.395l-0.823-1.41l2.621,0.254
	l-0.683-1.223l2.273,0.139l-0.536-1.027l2.074,0.07l-0.768-1.49l0,0"/>
<path id="path4253_1_" fill="#6A6A6A" stroke="#6A6A6A" stroke-width="2.9" d="M679.618,136.557l2.227-3.857l-4.181,1.629
	l1.354-2.789l-3.961,0.943l1.326-2.688l-3.676,0.928l1.091-2.287l-3.461,0.662l0.924-1.854l-2.871,0.395l0.823-1.412l-2.621,0.256
	l0.682-1.223L665,125.396l0.536-1.026l-2.074,0.069l0.768-1.489l0,0"/>
<path id="path4249_1_" fill="#6A6A6A" stroke="#6A6A6A" d="M682.191,131.812l-21.183-8.781l-2.437-1.297l22.944,11.428
	L682.191,131.812z"/>
<path id="path4251_1_" fill="#6A6A6A" stroke="#6A6A6A" stroke-width="3" d="M682.056,138.66
	c0.787,0.369-13.938-11.521-23.156-16.234l-0.646-0.33"/>
<path id="path12772_1_" fill="#6A6A6A" stroke="#6A6A6A" stroke-width="0.2055" d="M540.331,111.154
	c0.083-0.037,0.146-0.135,0.146-0.234l0,0c0-0.137-0.104-0.244-0.229-0.244c-0.128,0-0.231,0.107-0.231,0.244
	c0,0.104,0.063,0.193,0.162,0.232l-0.021,1.367l-0.392,0.004v0.262h0.146c0,0,0.031,0.398-0.044,0.691
	c-1.002,2.61-1.932,2.93-1.932,2.93l-1.13-0.012l-0.545,1.043l-0.011,3.578l-0.581,0.006l-0.008,0.805h0.6v8.379l-0.665,1.727
	l0.021,8.617l0,0h9.146l-0.021-8.729l-0.688-1.727v-8.268h0.604l-0.008-0.803l-0.581-0.008l-0.015-3.578l-0.479-0.998l-0.996-0.035
	c0,0-0.805-0.492-1.939-2.965c-0.025-0.453,0.004-0.656-0.002-0.66l0,0l0.146,0.002l-0.002-0.271h-0.396L540.331,111.154
	L540.331,111.154z"/>
<path id="path12108_1_" fill="#6A6A6A" stroke="#6A6A6A" stroke-width="0.2055" d="M770.643,111.154
	c0.083-0.037,0.148-0.135,0.148-0.234l0,0c0-0.137-0.104-0.244-0.23-0.244c-0.125,0-0.229,0.107-0.229,0.244
	c0,0.104,0.062,0.193,0.162,0.232l-0.023,1.367l-0.387,0.004v0.262h0.146c0,0,0.03,0.398-0.046,0.691
	c-1.002,2.61-1.928,2.93-1.928,2.93l-1.129-0.012l-0.545,1.043l-0.014,3.578l-0.578,0.006l-0.011,0.805h0.603v8.379l-0.665,1.727
	l0.021,8.617l0,0h9.148l-0.021-8.729l-0.688-1.727v-8.268h0.602l-0.01-0.803l-0.58-0.008l-0.012-3.578l-0.479-0.998l-0.996-0.035
	c0,0-0.807-0.492-1.938-2.965c-0.027-0.453,0.003-0.656-0.003-0.66l0,0l0.146,0.002l-0.002-0.271h-0.395L770.643,111.154
	L770.643,111.154z"/>
<path id="path7339_1_" fill="#6A6A6A" stroke="#6A6A6A" d="M692.179,94.014h0.7l0.442-2.479l0.202-0.889l-0.288-0.021l-0.025-0.188
	l0.361-0.015l0.284-1.782l0.137-0.98l0.113,1.002l0.303,1.764l0.29,0.014l0.026,0.201l-0.298-0.021l0.83,5.121l0.062,35.492l0,0
	l-11-0.002V95.734l0.849-5.209l-0.267,0.022l0.021-0.174l0.267-0.021l0.267-1.395l0.165-1.168l0.094,1.176l0.252,1.324l0.266,0.021
	l-0.012,0.141L686,90.477l0.264,1.059l0.696,2.554l0.646,0.004l2.281-8.338L692.179,94.014L692.179,94.014z"/>
<path id="path2236_1_" fill="#6A6A6A" stroke="#6A6A6A" d="M624.126,94.057l0.506,0.012l0.442-2.457l0.202-0.891l-0.287-0.021
	l-0.026-0.188l0.363-0.012l0.282-1.783l0.138-0.979l0.112,1.002l0.304,1.763l0.289,0.013l0.027,0.202l-0.299-0.021l0.831,5.121
	l0.062,35.49l0,0h-11.003V95.812l0.848-5.211l-0.266,0.023l0.021-0.176l0.266-0.021l0.267-1.394l0.164-1.17l0.095,1.179l0.253,1.323
	l0.264,0.021l-0.011,0.143l-0.22,0.021l0.264,1.059l0.814,2.441l0.505-0.004l2.309-8.222L624.126,94.057L624.126,94.057z"/>
<path id="path2276_1_" fill="#6A6A6A" stroke="#6A6A6A" d="M681,131.189h17.826v10.082h-17.918L681,131.189z"/>
<path id="path2280_1_" fill="#6A6A6A" stroke="#6A6A6A" d="M612.702,131.189h17.823v10.082h-17.917L612.702,131.189z"/>
<path id="path2912_1_" fill="#6A6A6A" stroke="#6A6A6A" stroke-width="0.0718" d="M488.983,121.189h10.993v-1.573h-1.089v-1.291
	h-1.251v-2.944l-0.764-0.439v-4.28l0.723-0.504v-0.507l-0.786-0.481v-0.442l0.012-0.324c0,0,0.018-0.271-0.239-0.286
	c0.014-0.015,0.153-0.455-0.2-0.612c0.043,0-0.242-29.632-0.242-29.632s-0.193-0.151-0.315-0.185
	c0.062-0.028,0.349-2.455,1.028-3.025c0.001-0.051-0.003-0.104-0.003-0.104l-0.136-0.011v-0.173l0.166-0.069v-0.145
	c0,0-0.684-0.055-0.81-0.328c-0.007-0.024-0.274-1.377-0.959-1.522c0.031-0.003-0.479-0.005-0.532-0.004
	c-0.061,0.001-0.58,0.005-0.535,0.006c-0.562,0.079-0.953,1.498-0.958,1.523c-0.126,0.271-0.811,0.327-0.811,0.327v0.142l0.166,0.07
	v0.172l-0.137,0.01c0,0-0.004,0.053-0.003,0.104c0.688,0.569,0.971,2.996,1.032,3.026c-0.124,0.028-0.319,0.185-0.319,0.185
	s-0.285,29.632-0.241,29.632c-0.354,0.155-0.215,0.6-0.196,0.612c-0.259,0.015-0.242,0.284-0.242,0.284l0.01,0.324v0.441
	l-0.787,0.482v0.504l0.728,0.505v4.28l-0.768,0.439v2.943h-1.251v1.294h-1.09v1.571h10.996"/>
<path id="path2914_1_" fill="#6A6A6A" stroke="#6A6A6A" stroke-width="0.0718" d="M493.677,72.502l-0.995-0.01
	c0,0,0.287-0.386,0.322-0.618c0.054-0.233,0.368-0.278,0.413-0.449c0,0.054,0.269-1.688,0.386-1.759
	c0.116-0.072-0.105-0.1-0.105-0.1s-0.069,0.188-0.188,0.197c-0.105,0.009-0.206-0.521-0.206-0.521l-0.009-0.592l0.081-0.054
	l0.018-0.179l0.287-0.063c0,0,0.116,0.018,0.217,0.108c0.013,0,0.125-0.136,0.231-0.108c0.101,0.009,0.036-0.359,0.036-0.359
	l-0.309-0.018c0,0,0.196-0.924,0.654-0.987c0.01,0-0.012-0.123,0.021-0.134c0.083-0.034,0.143-0.016,0.158,0
	c0.017,0.011,0.021,0.188,0.021,0.188s0.18,0.125,0.271,0.251c-0.011-0.055,0.151,0.251,0.151,0.251s0.09,0.012,0.099,0.019
	c0.022,0.019,0,0.175-0.01,0.197c-0.004,0.012-0.224,0.054-0.224,0.054l-0.138,0.072l-0.062,0.036l-0.02,0.458l0.217,0.106
	l0.035,0.072c0,0,0.193-0.021,0.319,0c0.026,0.004,0.146,0.197,0.107,0.386c-0.021,0.188,0.08,0.477,0.08,0.477l0.126,0.287
	l0.081,0.35l0.188,0.045l0.071,0.134l-0.009,0.117l-0.218,0.09l-0.479,2.028l-0.145-0.054l0.521-2.02c0,0-0.115,0.009-0.171-0.045
	c-0.053-0.054-0.287-0.592-0.276-0.709c-0.019-0.018-0.091-0.027-0.091-0.027v0.243l0.063,0.036l-0.011,1.141l-0.137,0.601
	l-0.261,0.027c0,0-0.081,0.196-0.026,0.251c0,0.018,0.367,0.035,0.358,0.421C495.067,72.322,493.677,72.52,493.677,72.502
	L493.677,72.502z"/>
<path id="path2836_1_" fill="#6A6A6A" d="M447.655,54.991c0,1.267-1.025,2.292-2.291,2.292c-1.267,0-2.293-1.025-2.293-2.292
	c0-1.266,1.026-2.292,2.293-2.292C446.63,52.699,447.655,53.725,447.655,54.991z"/>
<path id="path2838_1_" fill="#6A6A6A" d="M438.856,56.699c0,1.267-1.025,2.292-2.291,2.292c-1.268,0-2.293-1.025-2.293-2.292
	c0-1.266,1.025-2.291,2.293-2.291C437.83,54.408,438.856,55.433,438.856,56.699z"/>
<path id="path2840_1_" fill="#6A6A6A" d="M431.789,59.45c0,1.267-1.025,2.292-2.292,2.292s-2.292-1.025-2.292-2.292
	c0-1.266,1.025-2.292,2.292-2.292S431.789,58.186,431.789,59.45z"/>
<path id="path2842_1_" fill="#6A6A6A" d="M425.207,63.658c0,1.267-1.025,2.292-2.291,2.292s-2.292-1.025-2.292-2.292
	c0-1.266,1.026-2.292,2.292-2.292S425.207,62.392,425.207,63.658z"/>
<path id="path2844_1_" fill="#6A6A6A" d="M419.812,68.891c0,1.266-1.023,2.292-2.29,2.292s-2.291-1.026-2.291-2.292
	s1.024-2.292,2.291-2.292C418.788,66.599,419.812,67.625,419.812,68.891z"/>
<path id="path2846_1_" fill="#6A6A6A" d="M415.444,75.094c0,1.268-1.025,2.293-2.291,2.293c-1.267,0-2.293-1.025-2.293-2.293
	c0-1.267,1.026-2.292,2.293-2.292C414.419,72.802,415.444,73.829,415.444,75.094z"/>
<path id="path2848_1_" fill="#6A6A6A" d="M412.207,82.215c0,1.268-1.025,2.293-2.292,2.293s-2.292-1.025-2.292-2.293
	s1.025-2.291,2.292-2.291S412.207,80.949,412.207,82.215z"/>
<path id="path2850_1_" fill="#6A6A6A" d="M410.481,89.768c0,1.268-1.025,2.291-2.291,2.291c-1.268,0-2.293-1.023-2.293-2.291
	c0-1.266,1.025-2.293,2.293-2.293C409.455,87.475,410.481,88.502,410.481,89.768z"/>
<path id="path2852_1_" fill="#6A6A6A" d="M409.942,97.428c0,1.268-1.026,2.291-2.293,2.291s-2.291-1.023-2.291-2.291
	s1.024-2.293,2.291-2.293C408.915,95.135,409.942,96.162,409.942,97.428z"/>
<path id="path2854_1_" fill="#6A6A6A" d="M411.235,105.303c0,1.268-1.024,2.293-2.291,2.293s-2.291-1.025-2.291-2.293
	s1.024-2.291,2.291-2.291C410.21,103.012,411.235,104.037,411.235,105.303z"/>
<path id="path2856_1_" fill="#6A6A6A" d="M413.717,112.641c0,1.268-1.024,2.291-2.291,2.291c-1.266,0-2.292-1.023-2.292-2.291
	c0-1.266,1.026-2.293,2.292-2.293C412.692,110.348,413.717,111.375,413.717,112.641z"/>
<path id="path2858_1_" fill="#6A6A6A" d="M417.871,119.869c0,1.268-1.025,2.291-2.292,2.291s-2.291-1.023-2.291-2.291
	c0-1.266,1.024-2.293,2.291-2.293S417.871,118.604,417.871,119.869z"/>
<path id="path2860_1_" fill="#6A6A6A" d="M424.074,126.342c0,1.268-1.025,2.293-2.291,2.293c-1.267,0-2.292-1.025-2.292-2.293
	c0-1.266,1.025-2.291,2.292-2.291C423.049,124.051,424.074,125.076,424.074,126.342z"/>
<path id="path2862_1_" fill="#6A6A6A" d="M431.033,131.252c0,1.266-1.025,2.291-2.291,2.291c-1.267,0-2.292-1.025-2.292-2.291
	c0-1.268,1.025-2.293,2.292-2.293C430.008,128.959,431.033,129.986,431.033,131.252z"/>
<path id="path2864_1_" fill="#6A6A6A" d="M440.121,134.758c0,1.268-1.025,2.293-2.292,2.293s-2.292-1.025-2.292-2.293
	s1.025-2.291,2.292-2.291S440.121,133.492,440.121,134.758z"/>
<path id="path2866_1_" fill="#6A6A6A" d="M450.536,135.617c0,1.268-1.026,2.291-2.292,2.291s-2.291-1.023-2.291-2.291
	s1.025-2.293,2.291-2.293S450.536,134.354,450.536,135.617z"/>
<path id="path2868_1_" fill="#6A6A6A" d="M459.598,135.107c0,1.27-1.024,2.293-2.291,2.293s-2.293-1.023-2.293-2.293
	c0-1.267,1.026-2.291,2.293-2.291C458.572,132.816,459.598,133.842,459.598,135.107z"/>
<path id="path2870_1_" fill="#6A6A6A" d="M469.119,131.951c0,1.268-1.026,2.293-2.292,2.293c-1.268,0-2.292-1.025-2.292-2.293
	c0-1.266,1.024-2.291,2.292-2.291C468.093,129.66,469.119,130.688,469.119,131.951z"/>
<path id="path2872_1_" fill="#6A6A6A" d="M477.049,126.721c0,1.268-1.024,2.291-2.292,2.291c-1.266,0-2.292-1.023-2.292-2.291
	s1.026-2.293,2.292-2.293C476.024,124.428,477.049,125.453,477.049,126.721z"/>
<path id="path2874_1_" fill="#6A6A6A" d="M482.982,120.408c0,1.268-1.022,2.291-2.291,2.291c-1.268,0-2.292-1.023-2.292-2.291
	c0-1.266,1.025-2.291,2.292-2.291S482.982,119.145,482.982,120.408z"/>
<path id="path2876_1_" fill="#6A6A6A" d="M487.352,113.449c0,1.268-1.021,2.291-2.291,2.291c-1.266,0-2.292-1.023-2.292-2.291
	s1.026-2.293,2.292-2.293C486.327,111.156,487.352,112.184,487.352,113.449z"/>
<path id="path2878_1_" fill="#6A6A6A" d="M490.104,105.789c0,1.268-1.021,2.291-2.29,2.291c-1.268,0-2.294-1.023-2.294-2.291
	c0-1.266,1.026-2.293,2.294-2.293C489.078,103.496,490.104,104.523,490.104,105.789z"/>
<path id="path2880_1_" fill="#6A6A6A" d="M491.452,98.129c0,1.268-1.026,2.293-2.292,2.293c-1.271,0-2.291-1.025-2.291-2.293
	s1.021-2.291,2.291-2.291C490.426,95.838,491.452,96.863,491.452,98.129z"/>
<path id="path2882_1_" fill="#6A6A6A" d="M491.29,90.199c0,1.268-1.026,2.291-2.292,2.291c-1.27,0-2.291-1.023-2.291-2.291
	s1.022-2.293,2.291-2.293C490.264,87.906,491.29,88.934,491.29,90.199z"/>
<path id="path2884_1_" fill="#6A6A6A" d="M489.402,82.215c0,1.268-1.023,2.293-2.292,2.293c-1.268,0-2.292-1.025-2.292-2.293
	s1.024-2.291,2.292-2.291C488.376,79.924,489.402,80.949,489.402,82.215z"/>
<path id="path2886_1_" fill="#6A6A6A" d="M486.381,75.525c0,1.27-1.023,2.293-2.291,2.293c-1.266,0-2.292-1.023-2.292-2.293
	c0-1.266,1.026-2.292,2.292-2.292C485.356,73.234,486.381,74.26,486.381,75.525z"/>
<path id="path2888_1_" fill="#6A6A6A" d="M481.688,68.945c0,1.266-1.021,2.291-2.29,2.291c-1.267,0-2.291-1.025-2.291-2.291
	c0-1.266,1.024-2.292,2.291-2.292C480.663,66.653,481.688,67.679,481.688,68.945z"/>
<path id="path2890_1_" fill="#6A6A6A" d="M476.401,63.766c0,1.266-1.025,2.292-2.291,2.292c-1.268,0-2.291-1.026-2.291-2.292
	c0-1.265,1.023-2.292,2.291-2.292C475.375,61.474,476.401,62.501,476.401,63.766z"/>
<path id="path2892_1_" fill="#6A6A6A" d="M469.821,59.505c0,1.266-1.026,2.292-2.293,2.292s-2.291-1.026-2.291-2.292
	c0-1.267,1.024-2.292,2.291-2.292C468.794,57.213,469.821,58.239,469.821,59.505z"/>
<path id="path2894_1_" fill="#6A6A6A" d="M462.699,56.592c0,1.266-1.025,2.292-2.291,2.292c-1.267,0-2.292-1.026-2.292-2.292
	c0-1.267,1.025-2.292,2.292-2.292C461.674,54.3,462.699,55.326,462.699,56.592z"/>
<path id="path2896_1_" fill="#6A6A6A" d="M455.471,55.135c0,1.266-1.024,2.292-2.291,2.292s-2.291-1.026-2.291-2.292
	c0-1.267,1.024-2.292,2.291-2.292S455.471,53.869,455.471,55.135z"/>
<path id="path2898_1_" fill="none" stroke="#6A6A6A" stroke-width="0.9" d="M481.036,95.057c0,18.326-14.856,33.186-33.188,33.186
	c-18.329,0-33.186-14.854-33.186-33.186c0-18.33,14.857-33.187,33.187-33.187C466.18,61.871,481.036,76.729,481.036,95.057z"/>
<path id="path2900_1_" fill="none" stroke="#6A6A6A" stroke-width="2" d="M486.426,95.285c0,21.021-17.039,38.061-38.059,38.061
	c-21.021,0-38.059-17.039-38.059-38.061c0-21.019,17.039-38.058,38.06-38.058C469.388,57.227,486.426,74.267,486.426,95.285z"/>
<path id="path2902_1_" fill="none" stroke="#6A6A6A" stroke-width="0.3055" d="M435.836,64.083l-3.434-2.938l0.268,4.463
	l-3.318-2.747l0.269,4.272l-3.09-2.595l0.647,4.312l-3.317-1.945l1.104,3.814l-4.194-1.106l1.829,3.473l-3.929-0.802l1.983,3.547
	l-4.351-0.608l2.597,3.354h-4.121l2.671,2.289l-4.005,0.727l2.746,2.253l-4.119,1.258l3.013,2.403l-3.509,1.793l3.242,1.603
	l-4.119,2.211l3.203,0.611l-3.356,2.937l3.738,0.459l-3.356,3.203l4.119,0.19l-3.547,3.241l4.119-0.075l-3.242,3.051l4.539,0.076
	l-3.014,3.129l4.119-0.459l-2.822,4.121l4.502-1.451l-2.594,4.729l4.348-1.905l-1.602,5.53l4.311-2.521l-1.26,5.568l4.464-2.785
	l-0.802,5.492l3.93-3.127l-0.344,5.76l3.891-3.892l0.725,5.604l3.587-3.968l1.029,5.604l3.091-4.536l1.562,5.264l2.326-4.959
	l2.519,5.265l1.604-5.226l2.556,4.881l1.45-5.53l3.279,4.578l0.688-5.455l3.738,4.157l0.151-5.606l3.968,3.813l-0.307-5.95
	l4.157,3.356l-0.877-5.455l3.891,2.978l-1.067-5.761l4.503,2.212l-1.604-5.606l4.615,1.831l-2.44-5.034l4.845,1.524l-3.28-4.959
	l5.073,0.459l-3.7-3.892l4.54-0.229l-3.814-3.433l4.811-1.26l-4.312-2.938l4.577-1.184l-4.194-2.175l4.233-1.185l-4.691-1.642
	l4.156-2.595l-5.107-0.42l3.854-2.858h-4.233l4.157-2.899l-5.341,0.153l3.434-3.662l-4.958,1.222l3.356-3.773l-4.846,0.457
	l2.214-4.387l-4.577,1.792l1.754-4.996l-4.005,2.402l1.146-5.11l-3.97,2.975l0.269-5.569l-3.375,3.376l-0.646-5.611l-3.938,3.074
	l-0.81-5.017l-3.021,3.83l-0.646-4.693l-2.806,4.154l-1.456-4.747l-1.673,4.1l-2.104-4.585l-1.402,4.585l-2.808-4.046l-0.381,4.321
	l-3.614-3.614l-0.216,4.531l-3.345-3.291L435.836,64.083L435.836,64.083z"/>
<path id="path2904_1_" fill="#6A6A6A" stroke="#6A6A6A" stroke-width="0.9" d="M450.865,94.217c0,1.412-1.146,2.559-2.558,2.559
	c-1.409,0-2.556-1.146-2.556-2.559c0-1.41,1.146-2.557,2.556-2.557C449.721,91.66,450.865,92.805,450.865,94.217z"/>
<path id="path2906_1_" fill="#6A6A6A" stroke="#6A6A6A" stroke-width="0.3486" d="M447.188,96.402L448,96.413
	c0,0-1.192,11.455-4.749,43.976l-4.152-0.082"/>
<path id="path2908_1_" fill="#6A6A6A" stroke="#6A6A6A" stroke-width="0.3527" d="M448.856,96.363l-0.83,0.012
	c0,0,1.716,13.764,5.284,44.119l3.826-0.23"/>
<path id="path3176_1_" fill="#6A6A6A" stroke="#000000" stroke-width="0.1233" d="M403.463,128.6V93.217h0.688v-8.701h-1.319v-1.406
	h-0.606l-1.794-2.969v-2.709l-1.937-6.125l-0.013-1.137v1.137l-2.104,6.125v2.709l-1.794,2.969h-0.606v1.406h-1.319v8.701h0.687
	v35.391L403.463,128.6L403.463,128.6z"/>
<path id="path3178_1_" fill="#6A6A6A" d="M401.221,88.672c0.001,1.693-1.372,3.066-3.065,3.066c-1.694,0-3.067-1.373-3.066-3.066
	c-0.001-1.691,1.372-3.066,3.066-3.066C399.849,85.605,401.222,86.979,401.221,88.672z"/>
<path id="path3180_1_" fill="#6A6A6A" d="M382.295,112.629l16.563-0.049v16.021l-16.598,0.047L382.295,112.629z"/>
<path id="path3182_1_" fill="#6A6A6A" d="M193.741,81.742l-2.348,3.584l-0.107-11.79l-1.492-2.256l-1.928,2.184l-0.029,54.625
	l19.326-6.979v7l0.029-54.393l-1.595-2.65l-1.878,2.471v11.838l-2.265-3.571l-2.089-0.007l-0.049-3.371l-1.843-2.961l-1.817,3.03
	l0.004,3.246H193.741L193.741,81.742z"/>
<path id="path3184_1_" fill="#6A6A6A" stroke="#000000" stroke-width="0.0181" d="M285.345,122.104v-15.562l-1.922-5.385v-4.355
	c0,0-3.244-7.932-3.372-13.44c-0.055-0.198-0.07-0.207-0.12-0.006c-0.128,5.511-3.358,13.446-3.358,13.446v4.355l-1.922,4.254v16.69
	"/>
<path id="path3186_1_" fill="#6A6A6A" stroke="#000000" stroke-width="0.2058" d="M257.479,140.389h-11.095v-35.225l1.44-3.258
	l1.126,3.238l0.015,3.334h6.072v-3.621l1.195-2.939l1.232,2.996L257.479,140.389z"/>
<path id="path3188_1_" fill="#6A6A6A" stroke="#000000" stroke-width="0.2058" d="M313.573,140.408h-11.094v-35.225l1.439-3.259
	l1.127,3.237l0.015,3.335h6.072v-3.619l1.195-2.938l1.233,2.996L313.573,140.408z"/>
<path id="path3192_1_" fill="#6A6A6A" stroke="#777777" d="M197.287,140.387h-11.094V105.16l1.44-3.258l1.126,3.238l0.015,3.334
	h6.072v-3.621l1.195-2.939l1.233,2.996L197.287,140.387L197.287,140.387z"/>
<path id="path3194_1_" fill="#6A6A6A" stroke="#777777" d="M179.116,140.389l-11.094,0.02v-35.239l1.44-3.259l1.126,3.238
	l0.015,3.334h6.072v-3.621l1.195-2.938l1.233,2.996L179.116,140.389z"/>
<path id="path3196_1_" fill="#6A6A6A" stroke="#777777" stroke-width="0.2345" d="M180.876,114.48l0.034,0.265
	c0.297,0.187,0.33,0.646,0.323,0.646l-0.01,2.785l-0.717,0.004l-0.01-2.789c-0.007-0.002,0.025-0.461,0.323-0.646l0.02-0.263
	L180.876,114.48L180.876,114.48z"/>
<path id="path3198_1_" fill="#6A6A6A" stroke="#777777" stroke-width="1.8606" d="M172.268,118.295h21.02l-0.483,22.006
	l-20.699,0.012L172.268,118.295L172.268,118.295z"/>
<path id="path3200_1_" fill="#6A6A6A" stroke="#777777" stroke-width="0.2345" d="M184.727,114.48l0.034,0.265
	c0.297,0.187,0.329,0.646,0.322,0.646l-0.01,2.785l-0.716,0.004l-0.01-2.789c-0.007-0.002,0.025-0.461,0.323-0.646l0.02-0.263
	L184.727,114.48L184.727,114.48z"/>
<path id="path3204_1_" fill="#6A6A6A" stroke="#7F7F7F" d="M392,140.396h-11.094v-35.226l1.439-3.26l1.126,3.239l0.015,3.334h6.072
	v-3.62l1.195-2.939l1.233,2.996L392,140.396L392,140.396z"/>
<path id="path3206_1_" fill="#6A6A6A" stroke="#7F7F7F" d="M373.83,140.398h-11.094v-35.224l1.439-3.258l1.126,3.235l0.015,3.334
	h6.072v-3.62l1.195-2.938l1.233,2.996L373.83,140.398L373.83,140.398z"/>
<path id="path3208_1_" fill="#6A6A6A" stroke="#7F7F7F" stroke-width="0.2345" d="M375.589,114.49l0.034,0.264
	c0.297,0.188,0.329,0.645,0.322,0.646l-0.01,2.785l-0.716,0.004l-0.01-2.789c-0.007-0.004,0.025-0.461,0.323-0.646l0.02-0.264
	H375.589L375.589,114.49z"/>
<path id="path3210_1_" fill="#6A6A6A" stroke="#7F7F7F" stroke-width="1.8359" d="M367.258,118.301h20.461l-0.47,22.014
	l-20.148,0.01L367.258,118.301L367.258,118.301z"/>
<path id="path3212_1_" fill="#6A6A6A" stroke="#7F7F7F" stroke-width="0.2345" d="M379.44,114.49l0.034,0.264
	c0.298,0.188,0.33,0.645,0.323,0.646l-0.01,2.785l-0.716,0.004l-0.01-2.789c-0.007-0.004,0.025-0.461,0.323-0.646l0.021-0.264
	H379.44L379.44,114.49z"/>
<path id="path3216_1_" fill="#6A6A6A" stroke="#827F7F" stroke-width="0.2345" d="M200.514,117.43l0.033,0.264
	c0.298,0.187,0.33,0.646,0.323,0.646l-0.01,2.783l-0.716,0.006l-0.01-2.789c-0.007-0.002,0.025-0.461,0.323-0.646l0.021-0.264
	H200.514L200.514,117.43z"/>
<path id="path3218_1_" fill="#6A6A6A" stroke="#827F7F" stroke-width="0.2345" d="M204.739,117.43l0.034,0.264
	c0.297,0.187,0.33,0.646,0.323,0.646l-0.01,2.783l-0.717,0.006l-0.01-2.789c-0.007-0.002,0.025-0.461,0.323-0.646l0.02-0.264
	H204.739L204.739,117.43z"/>
<path id="path3220_1_" fill="#6A6A6A" stroke="#827F7F" stroke-width="0.2345" d="M209.05,117.43l0.033,0.264
	c0.298,0.187,0.33,0.646,0.323,0.646l-0.01,2.783l-0.716,0.006l-0.01-2.789c-0.007-0.002,0.025-0.461,0.322-0.646l0.021-0.264
	H209.05L209.05,117.43z"/>
<path id="path3222_1_" fill="#6A6A6A" stroke="#827F7F" stroke-width="0.2345" d="M213.275,117.43l0.034,0.264
	c0.297,0.187,0.329,0.646,0.322,0.646l-0.01,2.783l-0.716,0.006l-0.01-2.789c-0.007-0.002,0.025-0.461,0.323-0.646l0.02-0.264
	H213.275L213.275,117.43z"/>
<path id="path3224_1_" fill="#6A6A6A" stroke="#827F7F" stroke-width="0.2345" d="M217.558,117.502l0.033,0.264
	c0.298,0.186,0.33,0.645,0.323,0.646l-0.01,2.785l-0.716,0.004l-0.01-2.789c-0.007-0.002,0.025-0.461,0.323-0.646l0.021-0.264
	H217.558z"/>
<path id="path3226_1_" fill="#6A6A6A" stroke="#827F7F" stroke-width="0.2345" d="M221.783,117.502l0.034,0.264
	c0.297,0.186,0.33,0.645,0.323,0.646l-0.01,2.785l-0.717,0.004l-0.01-2.789c-0.007-0.002,0.025-0.461,0.323-0.646l0.02-0.264
	H221.783L221.783,117.502z"/>
<path id="path3228_1_" fill="#6A6A6A" stroke="#827F7F" stroke-width="0.2345" d="M226.094,117.502l0.033,0.264
	c0.298,0.186,0.33,0.645,0.323,0.646l-0.01,2.785l-0.716,0.004l-0.01-2.789c-0.007-0.002,0.025-0.461,0.322-0.646l0.021-0.264
	H226.094z"/>
<path id="path3230_1_" fill="#6A6A6A" stroke="#827F7F" stroke-width="0.2345" d="M230.319,117.502l0.034,0.264
	c0.297,0.186,0.329,0.645,0.322,0.646l-0.01,2.785l-0.716,0.004l-0.01-2.789c-0.007-0.002,0.025-0.461,0.323-0.646l0.02-0.264
	H230.319z"/>
<path id="path3232_1_" fill="#6A6A6A" stroke="#827F7F" stroke-width="0.2345" d="M234.808,117.357l0.034,0.263
	c0.297,0.187,0.329,0.646,0.322,0.646l-0.01,2.785l-0.716,0.004l-0.01-2.789c-0.007-0.002,0.025-0.461,0.323-0.646l0.02-0.263
	H234.808L234.808,117.357z"/>
<path id="path3234_1_" fill="#6A6A6A" stroke="#827F7F" stroke-width="0.2345" d="M239.118,117.357l0.033,0.263
	c0.298,0.187,0.33,0.646,0.323,0.646l-0.01,2.785l-0.716,0.004l-0.01-2.789c-0.007-0.002,0.025-0.461,0.322-0.646l0.021-0.263
	H239.118L239.118,117.357z"/>
<path id="path3236_1_" fill="#6A6A6A" stroke="#827F7F" stroke-width="0.2345" d="M243.344,117.357l0.034,0.263
	c0.297,0.187,0.33,0.646,0.322,0.646l-0.01,2.785l-0.716,0.004l-0.01-2.789c-0.007-0.002,0.025-0.461,0.323-0.646l0.02-0.263
	H243.344L243.344,117.357z"/>
<path id="path3238_1_" fill="#6A6A6A" stroke="#827F7F" stroke-width="1.1498" d="M189.331,121.027h65.041v19.35l-65.279,0.018
	L189.331,121.027z"/>
<path id="path3242_1_" fill="#6A6A6A" stroke="#848484" stroke-width="0.236" d="M316.467,117.447l0.034,0.264
	c0.301,0.188,0.333,0.646,0.327,0.646l-0.01,2.783l-0.726,0.006l-0.01-2.789c-0.007-0.004,0.025-0.461,0.327-0.646l0.021-0.264
	H316.467L316.467,117.447z"/>
<path id="path3244_1_" fill="#6A6A6A" stroke="#848484" stroke-width="0.236" d="M320.745,117.447l0.034,0.264
	c0.301,0.188,0.334,0.646,0.327,0.646l-0.01,2.783l-0.725,0.006l-0.011-2.789c-0.007-0.004,0.025-0.461,0.327-0.646l0.021-0.264
	H320.745z"/>
<path id="path3246_1_" fill="#6A6A6A" stroke="#848484" stroke-width="0.236" d="M325.109,117.447l0.034,0.264
	c0.301,0.188,0.333,0.646,0.326,0.646l-0.01,2.783l-0.725,0.006l-0.01-2.789c-0.007-0.004,0.025-0.461,0.327-0.646l0.021-0.264
	H325.109L325.109,117.447z"/>
<path id="path3248_1_" fill="#6A6A6A" stroke="#848484" stroke-width="0.236" d="M329.388,117.447l0.034,0.264
	c0.302,0.188,0.334,0.646,0.327,0.646l-0.01,2.783l-0.725,0.006l-0.01-2.789c-0.007-0.004,0.025-0.461,0.327-0.646l0.021-0.264
	H329.388L329.388,117.447z"/>
<path id="path3250_1_" fill="#6A6A6A" stroke="#848484" stroke-width="0.236" d="M333.723,117.521l0.034,0.264
	c0.302,0.188,0.334,0.646,0.327,0.646l-0.01,2.784l-0.725,0.005l-0.01-2.789c-0.007-0.002,0.025-0.461,0.327-0.646l0.021-0.264
	H333.723L333.723,117.521z"/>
<path id="path3252_1_" fill="#6A6A6A" stroke="#848484" stroke-width="0.236" d="M338.002,117.521l0.034,0.264
	c0.301,0.188,0.333,0.646,0.326,0.646l-0.01,2.784l-0.726,0.005l-0.01-2.789c-0.007-0.002,0.025-0.461,0.327-0.646l0.021-0.264
	H338.002L338.002,117.521z"/>
<path id="path3254_1_" fill="#6A6A6A" stroke="#848484" stroke-width="0.236" d="M342.366,117.521l0.034,0.264
	c0.301,0.188,0.333,0.646,0.327,0.646l-0.01,2.784l-0.726,0.005l-0.01-2.789c-0.007-0.002,0.025-0.461,0.326-0.646l0.021-0.264
	H342.366L342.366,117.521z"/>
<path id="path3256_1_" fill="#6A6A6A" stroke="#848484" stroke-width="0.236" d="M346.645,117.521l0.034,0.264
	c0.301,0.188,0.334,0.646,0.327,0.646l-0.01,2.784l-0.725,0.005l-0.01-2.789c-0.007-0.002,0.025-0.461,0.327-0.646l0.021-0.264
	H346.645L346.645,117.521z"/>
<path id="path3258_1_" fill="#6A6A6A" stroke="#848484" stroke-width="0.236" d="M351.189,117.375l0.034,0.264
	c0.302,0.186,0.334,0.645,0.327,0.646l-0.01,2.785l-0.725,0.004l-0.01-2.789c-0.007-0.002,0.025-0.461,0.327-0.646l0.021-0.264
	H351.189L351.189,117.375z"/>
<path id="path3260_1_" fill="#6A6A6A" stroke="#848484" stroke-width="0.236" d="M355.553,117.375l0.034,0.264
	c0.301,0.186,0.334,0.645,0.327,0.646l-0.01,2.785l-0.725,0.004l-0.01-2.789c-0.007-0.002,0.025-0.461,0.327-0.646l0.021-0.264
	H355.553L355.553,117.375z"/>
<path id="path3262_1_" fill="#6A6A6A" stroke="#848484" stroke-width="0.236" d="M359.832,117.375l0.034,0.264
	c0.301,0.186,0.333,0.645,0.327,0.646l-0.01,2.785l-0.726,0.004l-0.01-2.789c-0.007-0.002,0.025-0.461,0.326-0.646l0.021-0.264
	H359.832L359.832,117.375z"/>
<path id="path3264_1_" fill="#6A6A6A" stroke="#848484" stroke-width="1.1399" d="M306.109,121.045h63.917v19.352h-64.151
	L306.109,121.045z"/>
<path id="path3268_1_" fill="#6A6A6A" stroke="#777777" stroke-width="0.2345" d="M260.105,114.842l0.033,0.264
	c0.298,0.186,0.33,0.646,0.323,0.646l-0.01,2.783l-0.716,0.004l-0.01-2.787c-0.007-0.004,0.024-0.463,0.322-0.646l0.021-0.265
	L260.105,114.842L260.105,114.842z"/>
<path id="path3271_1_" fill="#6A6A6A" stroke="#777777" stroke-width="0.2345" d="M264.531,114.828l0.034,0.266
	c0.298,0.186,0.33,0.645,0.323,0.646l-0.01,2.785l-0.716,0.004l-0.01-2.789c-0.007-0.002,0.025-0.461,0.323-0.646l0.021-0.266
	H264.531z"/>
<path id="path3273_1_" fill="#6A6A6A" stroke="#777777" stroke-width="0.2345" d="M268.854,114.828l0.034,0.266
	c0.297,0.186,0.33,0.645,0.323,0.646l-0.01,2.785l-0.717,0.004l-0.01-2.789c-0.007-0.002,0.025-0.461,0.323-0.646l0.02-0.266
	H268.854z"/>
<path id="path3275_1_" fill="#6A6A6A" stroke="#777777" stroke-width="0.2345" d="M273.279,114.828l0.033,0.266
	c0.298,0.186,0.33,0.645,0.323,0.646l-0.01,2.785l-0.716,0.004l-0.01-2.789c-0.007-0.002,0.025-0.461,0.322-0.646l0.021-0.266
	H273.279z"/>
<path id="path3277_1_" fill="#6A6A6A" stroke="#777777" stroke-width="0.2345" d="M277.629,114.828l0.033,0.266
	c0.298,0.186,0.33,0.645,0.323,0.646l-0.01,2.785l-0.716,0.004l-0.01-2.789c-0.007-0.002,0.025-0.461,0.322-0.646l0.021-0.266
	H277.629z"/>
<path id="path3279_1_" fill="#6A6A6A" stroke="#777777" stroke-width="0.2345" d="M281.978,114.828l0.033,0.266
	c0.298,0.186,0.33,0.645,0.323,0.646l-0.01,2.785l-0.716,0.004l-0.01-2.789c-0.007-0.002,0.025-0.461,0.322-0.646l0.021-0.266
	H281.978z"/>
<path id="path3281_1_" fill="#6A6A6A" stroke="#777777" stroke-width="0.2345" d="M286.223,114.828l0.034,0.266
	c0.297,0.186,0.33,0.645,0.323,0.646l-0.01,2.785l-0.716,0.004l-0.01-2.789c-0.007-0.002,0.025-0.461,0.323-0.646l0.02-0.266
	H286.223z"/>
<path id="path3283_1_" fill="#6A6A6A" stroke="#777777" stroke-width="0.2345" d="M290.597,114.828l0.034,0.266
	c0.297,0.186,0.329,0.645,0.322,0.646l-0.01,2.785l-0.716,0.004l-0.01-2.789c-0.007-0.002,0.025-0.461,0.323-0.646l0.02-0.266
	H290.597z"/>
<path id="path3285_1_" fill="#6A6A6A" stroke="#777777" stroke-width="0.2345" d="M294.996,114.828l0.033,0.266
	c0.298,0.186,0.33,0.645,0.323,0.646l-0.01,2.785l-0.716,0.004l-0.01-2.789c-0.007-0.002,0.025-0.461,0.323-0.646l0.021-0.266
	H294.996z"/>
<path id="path3287_1_" fill="#6A6A6A" stroke="#777777" stroke-width="0.2345" d="M299.421,114.828l0.034,0.266
	c0.297,0.186,0.33,0.645,0.322,0.646l-0.01,2.785l-0.716,0.004l-0.01-2.789c-0.007-0.002,0.025-0.461,0.323-0.646l0.02-0.266
	H299.421z"/>
<path id="path3289_1_" fill="#6A6A6A" stroke="#777777" stroke-width="1.1562" d="M249.828,118.566h60.432v21.815h-60.7
	L249.828,118.566z"/>
<path id="path3293_1_" fill="#6A6A6A" stroke="#6A6A6A" stroke-width="0.0153" d="M831.334,139.205v-2.311l0.257-0.259l-0.013-7.506
	c0,0-0.372-0.461-0.295-0.539c-0.025-0.09-0.025-0.577-0.025-0.577h0.372v-7.007l-0.347-0.243v-0.218l0.347,0.015l-0.347-0.412
	v-0.385l-0.455-0.265v-0.341l0.43-0.295v-0.448l0.295-0.205v-1.644h-0.27l-0.148-0.26v-0.242l0.157-0.158h1.352v1.211h0.271v0.205
	h0.553v-0.205h0.757v0.257h0.438v0.243h0.369v0.154l0.267,0.068v-0.902l0.211-0.387l0.18-0.182h1.812v0.205h2.117v-0.27h1.984v0.258
	h5.188v-0.31h1.963v0.31h5.248v-0.349h1.925v0.349h5.057v-0.334h2.299v0.295h1.834v-0.281h-0.279v-0.5h-0.206v-0.424h0.562v-3.238
	h-0.372v-0.917h0.166v-6.409v-1.295l-0.445-0.449v-0.395l0.591-0.225v-1.009l-0.162-0.043v-0.258l0.714-0.449l1.054-0.312h1.13
	v-2.924l-0.434-0.33v-0.545h0.444V96.35h0.188l-0.035-0.135h-0.146l-0.173-0.174V95.84l0.489-0.283V94.91h0.219
	c0.354-2.982,2.123-8.736,7.428-10.609v-0.41h0.229v-0.254c0,0-0.411,0.043-0.471-0.232c0-0.072-0.021-0.307,0.242-0.412
	l0.162-0.012v-0.867h0.136v-0.467h0.159v0.422h0.341v-0.744h-0.187v-0.446h0.355v-3.261l-0.396-0.319v-0.259h0.435v-1.021
	l0.407,0.408v0.498h0.317v-1.852h-0.417v-0.328h0.231v-0.998c0,0,0.534-0.844,0.861-0.844v-0.308l-0.281-0.146v-0.145h0.312V71.52
	h0.234c0,0-0.2-0.138-0.226-0.27l-0.006-0.302c0,0,0.083-0.147,0.18-0.153c0.108-0.009,0.128-0.008,0.128-0.008V70.62
	c-0.925-0.453-0.195-1.318-0.006-1.229l0.025-1.6l0.152-0.866l0.153,0.866l0.024,1.6c0.188-0.09,0.92,0.776-0.006,1.229v0.167
	c0,0,0.02-0.001,0.128,0.008c0.097,0.006,0.181,0.153,0.181,0.153l-0.007,0.302c-0.021,0.132-0.229,0.27-0.229,0.27h0.237v0.785
	h0.311v0.145l-0.279,0.146v0.308c0.326,0,0.859,0.844,0.859,0.844v0.998h0.234v0.328h-0.418v1.853h0.317v-0.5l0.405-0.407v1.021
	h0.438v0.258l-0.397,0.32v3.26h0.358v0.447h-0.188v0.744h0.342v-0.422h0.158v0.467h0.137v0.867l0.161,0.012
	c0.268,0.105,0.241,0.34,0.241,0.412c-0.059,0.275-0.47,0.234-0.47,0.234v0.254h0.229v0.407c5.307,1.873,7.072,7.63,7.428,10.61
	h0.218v0.646l0.491,0.284v0.201l-0.174,0.174h-0.146l-0.035,0.134h0.188v0.178h0.441v0.545l-0.433,0.33v2.926h1.131l1.054,0.312
	l0.715,0.448v0.259l-0.162,0.043v1.008l0.59,0.225v0.395l-0.447,0.449v1.295v6.41h0.166v0.916h-0.371v3.238h0.562v0.424H892.7v0.5
	h-0.281v0.201h2.555v-0.373h2.298v0.373h5.091v-0.324h1.972v0.361h5.29v-0.354h2.01v0.334h4.66v-0.32h2.528v0.297h10.119v-1.854
	l-0.3-0.226l-0.015-1.194l0.306-0.138v-0.459h-0.298v-1.543h0.897v-0.605l0.44,0.006l-0.274-0.373l-0.146-0.172l-0.021-0.384
	l0.319,0.009v-0.486h0.145v-4.141l-0.242-0.145l-0.362-0.176v-0.59h0.604v-0.898h0.177v-0.629h0.291h0.148v-0.78h-0.185V101.4h0.185
	v-0.336h0.285v0.324h0.163v0.277h-0.163v0.449h0.229l0.269-0.432v-1.357h-0.199v-0.443h0.309v-0.455h0.229v-0.314h-0.221v-0.346
	h0.199v-0.324h0.152l-0.032-0.123h0.193l-0.02-0.586l0.284-0.389v-0.75l0.519-0.842h0.104c0,0,0.047-0.459,0.273-0.498
	c0-0.02,0.021-0.336,0.021-0.336c-0.203-0.025-0.297-0.396-0.014-0.518c0.002,0-0.011-0.312-0.009-0.312
	c-0.327-0.104-0.33-0.646,0.12-0.66c0.451,0.018,0.449,0.561,0.12,0.662c0.003,0-0.009,0.312-0.007,0.312
	c0.283,0.121,0.189,0.488-0.014,0.519c0,0,0.02,0.315,0.02,0.336c0.229,0.037,0.276,0.498,0.276,0.498h0.104l0.521,0.843v0.75
	l0.284,0.385l-0.021,0.588h0.194l-0.031,0.123h0.151v0.324h0.198v0.346h-0.221v0.314h0.229v0.454h0.307v0.442h-0.2v1.355
	l0.271,0.434h0.229v-0.448h-0.161v-0.276h0.161v-0.324h0.287v0.334h0.183v0.27h-0.183v0.779h0.149h0.291v0.629h0.177v0.898h0.604
	v0.59l-0.36,0.178l-0.243,0.141v4.143h0.144v0.484l0.32-0.008l-0.021,0.383l-0.146,0.172l-0.276,0.373l0.442-0.006v0.607h0.898
	v1.541h-0.301v0.461l0.309,0.137l-0.018,1.195l-0.297,0.225v1.496h1.219v-0.348c0,0-0.221-0.189-0.197-0.336
	c0,0.039,0.004-0.588,0.004-0.588s0.049-0.195,0.152-0.248c-0.017-0.016,0-1.287,0-1.287l0.141-0.135c0,0-0.072-0.263,0.164-0.271
	c-0.018,0,0.248-0.008,0.166,0.312c0-0.006,0.235,0.138,0.235,0.138v0.345h-0.102v0.146h0.162l-0.005,1.183h-0.152v1.087v1.866
	l0.298,0.188v1.008h-0.146v0.588h-0.162v5.548h0.475v0.914h0.316v0.614h-0.154v0.276h-0.475v0.904h0.184v0.647h-0.177v0.568h-0.162
	v7.104h0.312v0.291h0.172v0.17h0.153v2.414L831.334,139.205L831.334,139.205z"/>
<rect x="61.344" y="13.027" fill="none" width="320" height="54"/>
<path fill="#EA0D8E" d="M662.7,74.971c0-11.729,0-23.458,0-35.188c2.231-6.688,8.528-10.815,17.975-9.292
	c-0.216-7.703,9.578-11.388,15.689-7.159c5.132-15.981,37.418-15.505,38.688,4.57c9.965,0.546,15.338,5.685,19.042,12.491
	c0,11.526,0,23.052,0,34.58c-7.741,0-16.062,0-24.222,0c-2.322,0-5.896-0.555-7.921,0c-1.315,0.36-3.536,3.229-4.569,4.267
	c-1.475,1.476-2.813,3.288-4.418,4.112c-1.058-2.901-2.369-5.552-3.503-8.379C693.877,74.971,678.289,74.971,662.7,74.971z"/>
<rect x="662.509" y="46.78" fill="none" width="91.5" height="28.501"/>
<text transform="matrix(1.0114 0 0 1 667.0615 53.8398)" fill="#FFFFFF" font-family="'AkzidenzGroteskBQ-XBdCnd'" font-size="10">LONDON FESTIVAL OF</text>
<text transform="matrix(1.0114 0 0 1 667.1123 70.6406)" fill="#FFFFFF" font-family="'AkzidenzGroteskBQ-XBdCnd'" font-size="14">ARCHITECTURE</text>
</svg>
