<?xml version="1.0" encoding="utf-8"?>
<!-- Generator: Adobe Illustrator 13.0.0, SVG Export Plug-In . SVG Version: 6.00 Build 14948)  -->
<!DOCTYPE svg PUBLIC "-//W3C//DTD SVG 1.1//EN" "http://www.w3.org/Graphics/SVG/1.1/DTD/svg11.dtd">
<svg version="1.1" id="Layer_1" xmlns="http://www.w3.org/2000/svg" xmlns:xlink="http://www.w3.org/1999/xlink" x="0px" y="0px"
	 width="640px" height="480px" viewBox="0 0 640 480" enable-background="new 0 0 640 480" xml:space="preserve">
<g>
	<title>Layer 1</title>
	<g id="layer17">
		<path id="path4607" fill="#CCCCCC" d="M1084.877,127.089l-0.17-16.781h-7.871v15.966h-4.294v-19.699h-7.396v14.722h-5.963v-11.612
			h-6.439v10.99h-5.963v-14.722c0,0-5.012-11.612-9.065,0c0,4.354,0,14.722,0,14.722h-1.192V96l-8.021,4.026v21.997h-3.428v-21.876
			h-1.907v-3.732h-5.846v3.11h-2.861v21.979h-3.102v-17.314l-1.67-0.104l-1.788-10.886l-1.91,10.99h-2.384v17.314l-2.505-0.207
			V98.281l-4.799-7.227l-4.384,0.073l-5.226,7.864v22.928h-5.629V94.964h-8.467v26.852h-2.027V97.245h-6.68v23.535h-0.954v-20.735
			l-6.263,1.459v19.38h-6.977V97.141l-2.196-3.309l-2.284,3.438v23.301h-6.491V96h-7.156v24.157h-1.432V93.409h-11.569v26.23h-4.65
			v-14.722h-6.561v13.996h-0.953V92.787h-7.753v26.334h-2.146V94.964h-9.423v24.571h-4.414V95.192h-2.805v-6.598h-4.977v6.598
			h-3.627v24.485h-4.722v-16.421h-8.012v16.495h-7.506V97.245c0,0-4.387-4.692-9.952-0.514c0.085,2.273,0,23.24,0,23.24h-1.855
			V100.25h-5.734l-5.795,18.802h-2.976v-8.098l-1.266-2.713l-1.097,2.713h-6.239l-0.718-2.465l-1.106,2.456v8.037h-4.206v-12.426
			h-5.229v12.169h-2.403V97.611h-7.42v20.82h-5.229V94.532h-8.266v5.132h-3.036v-5.865h-7.421v24.486h-2.023V103.33h-4.892v14.516
			h-3.374V98.638h-5.564v18.914h-5.567V94.239h-6.409l0.338,32.696L1084.877,127.089z"/>
		<path id="path6551" fill="#CCCCCC" d="M423.467,132.091l0.17-16.781h7.871v15.966h4.294v-19.698h7.394V126.3h5.964v-11.612h6.439
			v10.989h5.964v-14.722c0,0,5.009-11.612,9.064,0c0,4.354,0,14.722,0,14.722h1.193v-24.675l8.021,4.026v21.997h3.428V105.15h1.907
			v-3.732h5.845v3.11h2.861v21.979h3.102v-17.314l1.671-0.104l1.788-10.886l1.909,10.99h2.385v17.314l2.505-0.207l2.588-25.829
			l3.29-4.414l3.305,0.073l3.785,4.364l1.438,26.428h5.631V99.966h8.468v26.852h2.027v-24.571h6.68v23.535h0.955v-20.735
			l6.262,1.459v19.38h6.977v-23.742l2.196-3.309l2.282,3.438v23.301h6.493v-24.571h7.156v24.157h1.432V98.411h11.568v26.23h4.651
			v-14.722h6.56v13.997h0.954V97.789h7.752v26.334h2.148V99.966h9.42v24.571h4.412v-24.343h2.808v-6.598h4.977v6.598h3.627v24.486
			h4.722v-16.421h8.012v16.495h7.506v-22.507c0,0,4.385-4.691,9.951-0.513c-0.084,2.272,0,23.239,0,23.239h1.854v-19.721h5.735
			l5.796,18.802h2.975v-8.099l1.265-2.712l1.097,2.712h6.241l0.717-2.465l1.107,2.456v8.037h4.206v-12.426h5.229v12.17h2.403
			v-21.114h7.42v20.82h5.229V99.535h8.264v5.132h3.037v-5.865h7.422v24.485h2.022v-14.955h4.892v14.516h3.374V103.64h5.565v18.914
			h5.566V99.242h6.409l-0.337,32.696L423.467,132.091z"/>
		<path id="path6553" fill="#CCCCCC" d="M131.263,129.067l0.169-16.781h7.872v15.966h4.292v-19.698h7.395v14.722h5.963v-11.612
			h6.441v10.99h5.962v-14.722c0,0,5.011-11.612,9.065,0c0,4.354,0,14.722,0,14.722h1.192V97.979l8.021,4.026v21.997h3.428v-21.876
			h1.909v-3.732h5.843v3.11h2.863v21.979h3.101v-17.314l1.669-0.104l1.79-10.886l1.909,10.99h2.385v17.314l2.505-0.207V100.26
			l4.799-7.227l4.384,0.073l5.224,7.864v22.928h5.63V96.942h8.468v26.852h2.027V99.223h6.679v23.535h0.954v-20.735l6.264,1.459
			v19.38h6.976V99.119l2.197-3.309l2.283,3.438v23.301h6.492V97.979h7.156v24.157h1.431V95.387h11.569v26.23h4.65v-14.722h6.56
			v13.997h0.955V94.765h7.751v26.334h2.146V96.942h9.423v24.571h4.413V97.17h2.808v-6.598h4.975v6.598h3.626v24.486h4.725v-16.421
			h8.01v16.495h7.506V99.223c0,0,4.387-4.691,9.951-0.513c-0.083,2.272,0,23.239,0,23.239h1.856v-19.721h5.734l5.796,18.802h2.974
			v-8.098l1.267-2.712l1.096,2.712h6.242l0.715-2.465l1.107,2.456v8.037h4.207v-12.426h5.227v12.17h2.404V99.589h7.422v20.82h5.229
			V96.51h8.265v5.132h3.035v-5.865h7.423v24.486h2.023v-14.956h4.891v14.516h3.375v-19.208h5.565v18.914h5.565V96.217h6.41
			l-0.337,32.696L131.263,129.067z"/>
		<path id="path6557" fill="#B3B3B3" d="M-55.528,132.4l0.169-16.781h7.871v15.966h4.293v-19.699h7.395v14.722h5.963v-11.612h6.441
			v10.99h5.963v-14.722c0,0,5.009-11.612,9.064,0c0,4.354,0,14.722,0,14.722h1.192v-24.675l8.021,4.025v21.997h3.428v-21.875h1.909
			v-3.732h5.843v3.11h2.863v21.979h3.101v-17.314l1.669-0.104l1.79-10.886l1.908,10.99h2.385v17.314l2.505-0.208v-23.016l4.8-7.227
			l4.384,0.073l5.223,7.864v22.928h5.63v-26.956h8.468v26.853h2.027v-24.571h6.68v23.534h0.954v-20.735l6.263,1.459v19.38h6.976
			v-23.742l2.197-3.308l2.283,3.438v23.302h6.491v-24.571h7.156v24.156h1.432V98.72h11.568v26.23h4.651v-14.722h6.561v13.996h0.954
			V98.099h7.752v26.333h2.147v-24.157h9.422v24.571h4.413v-24.343h2.807v-6.598h4.976v6.598h3.626v24.486h4.722v-16.421h8.012
			v16.495h7.505v-22.506c0,0,4.386-4.692,9.952-0.513c-0.085,2.272,0,23.239,0,23.239h1.856v-19.72h5.734l5.795,18.802h2.975v-8.099
			l1.265-2.712l1.097,2.712h6.239l0.718-2.465l1.105,2.456v8.037h4.208v-12.426h5.228v12.169h2.403v-21.114h7.422v20.82h5.228
			V99.844h8.264v5.131h3.036v-5.865h7.422v24.486h2.024v-14.955h4.891v14.515h3.373v-19.208h5.565v18.915h5.568V99.551h6.408
			l-0.338,32.696L-55.528,132.4z"/>
	</g>
	<g id="layer12">
		<rect id="rect2693" x="-66.5" y="121.284" fill="#333333" width="1153.009" height="20.859"/>
		<rect id="rect3848" x="-66.499" y="139.035" width="1152.999" height="10.96"/>
	</g>
	<g id="layer13">
		<path id="tree03" stroke="#000000" stroke-width="0.1366" d="M66.506,121.297l0.956-0.071l3.141,0.441
			c0.549,0.156,0.834,0.511,1.366,0.675l1.229,0.147c0.409,0.106,1.579,0.89,1.883,1.199c0.323,0.328,0.957,1.427,1.035,1.883
			c0.01,0.446-0.302,0.936,0,1.284c0.346,0.325,0.884,0.115,1.439,0.417c0.504,0.274,0.67,0.746,1.02,1.162
			c0.538,0.643,1.473,1.213,1.416,2.188c-0.074,1.251-2.483,0.691-2.947,1.919c-0.399,1.053,2.23,0.893,1.801,2.174
			c-0.326,0.975-1.772,0.785-2.507,1.064l-1.775,1.015c-0.418,0.187-0.881,0.545-1.341,0.272c-0.812-0.483-0.624-1.497-0.79-1.933
			c-0.15-0.396-0.515-0.682-0.874-0.885c-0.269-0.152-0.631-0.313-0.938-0.181c-0.533,0.229-1.254,1.261-1.327,1.845l-0.686,3.498
			c-0.105,0.488,0.084,1.061,0.083,1.594c0,0.297,0.028,0.702-0.14,0.953c-0.489,0.144-0.759,0.244-1.317-0.142
			c-0.284-0.606,0.052-0.89,0.135-1.58c0.027-0.832,0.123-2.161,0.088-3.056l-0.113-0.956l-0.127-0.683
			c-0.043-0.134-0.101-0.281-0.176-0.401c-0.818-1.308-1.941,0.533-2.458,0.809c-0.255,0.137-0.525,0.138-0.807,0.116
			c-0.411-0.033-1.017-0.136-1.366-0.352c-0.357-0.22-0.708-0.662-1.092-0.744c-0.615-0.132-2.383,1.325-2.648-0.113
			c-0.027-0.137-0.008-0.271,0-0.407c0.048-0.668,0.15-1.419-0.161-2.043c-0.412-0.826-0.59-0.283-1.333-2.054
			c-0.104-0.248-0.269-0.552-0.297-0.819c-0.108-1.036,1.359-1.557,1.626-2.197c0.205-0.392,0.017-0.691,0-1.08
			c-0.067-0.408,0.139-1.259,0.314-1.626c0.214-0.455,0.571-0.599,0.889-0.993c0.312-0.384,0.459-0.898,0.94-1.104
			c0.424-0.18,0.896-0.001,1.489-0.354c0.615-0.367,0.831-0.84,1.639-1.268C64.79,120.674,65.695,121.239,66.506,121.297
			L66.506,121.297z"/>
		<path id="tree04" stroke="#000000" stroke-width="0.159" d="M335.752,115.99c0.804,0.081,1.248-0.364,2,0.267
			c0.353,0.297,0.885,0.937,1.067,1.363c0.214,0.496,0.252,1.316,0.781,1.631c0.725,0.429,1.091-0.984,2.016-0.703
			c0.676,0.207,0.661,1.048,0.65,1.615c-0.035,1.817-1.24,3.273-1.084,4.448c0.136,1.037,1.601,1.204,1.524,2.544
			c-0.048,0.841-0.817,0.892-1.695,1.766c-1,1-1.362,1.919-1.899,3.166c-0.164,0.383-0.37,1.257-0.614,1.495
			c-0.484,0.472-1.168,0.002-1.786,0.219c-0.47,0.164-0.695,0.577-1.134,0.841c-0.826,0.496-2.643,0.651-3.137,1.596
			c-0.157,0.372-0.027,1.989,0,2.526c-0.029,0.414,0.003,1.175-0.234,1.519c-0.104,0.154-0.241,0.252-0.432,0.252
			c-0.721,0-0.635-1.141-0.635-1.612v-2.226c-0.033-1.741-1.005-1.577-2.226-2.101l-1.431-0.741c-0.519-0.275-1.076-0.77-1.59-0.906
			c-0.641-0.172-1.708,0.102-2.068-0.345c-0.433-0.536,0.186-1.944-0.116-2.744c-0.251-0.669-0.941-1.092-1.288-1.749
			c-0.188-0.354-0.631-1.83-0.633-2.226l0.148-1.272c-0.068-0.614-0.586-1.01-0.582-1.59c0.005-0.687,0.639-0.911,1.157-1.908
			c0.445-0.859,0.83-2.145,1.507-2.829c1.029-1.04,1.945-0.973,2.987-1.417c0.493-0.208,1.346-0.995,2.544-1.467
			c0.485-0.191,1.07-0.188,1.59-0.263C332.812,114.946,334.88,115.904,335.752,115.99z"/>
		<path id="path6593" stroke="#000000" stroke-width="0.1069" d="M942.376,122.733l0.748-0.056l2.458,0.345
			c0.43,0.122,0.652,0.399,1.068,0.528l0.961,0.115c0.32,0.083,1.236,0.697,1.475,0.938c0.252,0.256,0.748,1.116,0.81,1.473
			c0.007,0.35-0.236,0.732,0,1.004c0.271,0.254,0.691,0.09,1.126,0.326c0.395,0.215,0.525,0.583,0.799,0.909
			c0.42,0.503,1.152,0.949,1.107,1.712c-0.058,0.979-1.942,0.541-2.306,1.501c-0.312,0.824,1.745,0.699,1.409,1.701
			c-0.256,0.763-1.387,0.615-1.962,0.833l-1.389,0.794c-0.327,0.146-0.689,0.426-1.05,0.212c-0.635-0.378-0.488-1.171-0.617-1.512
			c-0.117-0.31-0.402-0.533-0.684-0.692c-0.211-0.119-0.494-0.245-0.734-0.141c-0.417,0.178-0.981,0.987-1.039,1.443l-0.536,2.737
			c-0.083,0.381,0.066,0.83,0.065,1.247c0,0.233,0.022,0.549-0.109,0.746c-0.383,0.112-0.594,0.191-1.031-0.111
			c-0.222-0.475,0.041-0.696,0.106-1.236c0.021-0.651,0.096-1.691,0.067-2.391l-0.088-0.748l-0.1-0.534
			c-0.034-0.104-0.079-0.22-0.138-0.314c-0.64-1.024-1.52,0.417-1.923,0.632c-0.2,0.107-0.412,0.108-0.632,0.091
			c-0.321-0.025-0.796-0.105-1.069-0.274c-0.279-0.172-0.554-0.518-0.854-0.582c-0.48-0.104-1.864,1.036-2.071-0.089
			c-0.021-0.107-0.006-0.212,0-0.318c0.037-0.522,0.117-1.11-0.127-1.599c-0.322-0.646-0.461-0.221-1.043-1.607
			c-0.08-0.194-0.21-0.432-0.232-0.641c-0.084-0.812,1.063-1.218,1.272-1.72c0.16-0.307,0.013-0.541,0-0.845
			c-0.052-0.32,0.109-0.985,0.246-1.273c0.167-0.356,0.446-0.469,0.695-0.777c0.244-0.3,0.359-0.703,0.736-0.863
			c0.331-0.141,0.701-0.001,1.165-0.277c0.481-0.288,0.65-0.657,1.282-0.992C941.033,122.246,941.741,122.688,942.376,122.733
			L942.376,122.733z"/>
	</g>
	<g id="layer11">
		<g id="g3228">
		</g>
		<g id="g3909">
			<path id="path3094" stroke="#000000" stroke-width="0.1296" d="M932.047,140.138l-0.044-14.125c0,0,1.208-0.161,1.853-0.913
				c0-0.107,0-37.424,0-37.424l-12.783,0c0,0,0,37.316,0,37.424c0.645,0.752,1.853,0.913,1.853,0.913v13.934
				C925.038,141.778,929.932,141.329,932.047,140.138z"/>
			<path id="path3096" stroke="#000000" stroke-width="0.1296" d="M924.934,87.7l-0.041-19.625h5.088l0.014,19.62L924.934,87.7
				L924.934,87.7z"/>
			<path id="path3098" stroke="#000000" stroke-width="0.1296" d="M921.609,84.306v1.386h11.731v-1.405L921.609,84.306z"/>
			<path id="path3100" stroke="#000000" stroke-width="0.1296" d="M921.666,80.357v1.386h11.731v-1.404L921.666,80.357z"/>
			<path id="path3102" stroke="#000000" stroke-width="0.1296" d="M921.59,76.409v1.386h11.732V76.39L921.59,76.409z"/>
			<path id="path3104" stroke="#000000" stroke-width="0.1296" d="M921.704,72.441v1.386h3.315h8.416v-1.404L921.704,72.441z"/>
			<path id="path3106" stroke="#000000" stroke-width="0.1296" d="M921.609,68.417v1.386h11.731v-1.405L921.609,68.417z"/>
			<path id="path3108" stroke="#000000" stroke-width="0.1296" d="M930.076,68.053c0,0,3.189-0.114,3.797-0.531
				c-0.02-0.987-0.02-1.006-0.02-1.006s-0.189-0.19-0.76-0.285c-0.057,0.019-0.037-0.247-0.037-0.247h0.531l0.246-0.247v-4.025
				h0.342c0,0,0.213-0.116,0.287-0.311c0-0.222,0-5.229,0-5.229s-0.282-0.329-0.651-0.443c0.021-0.021,0-3.564,0-3.564
				c-0.404-0.663-2.228-0.904-3.45-1.067l0.008-0.275c0,0,1.061-0.074,1.248-0.302c0.02,0,0.389-0.329,0.409-0.463
				c0.014-0.027,0-2.45,0-2.45c-0.142-0.247-1.235-0.678-2.235-0.745l-4.651,0.003c-0.999,0.067-2.093,0.498-2.234,0.745
				c0,0-0.014,2.423,0,2.45c0.02,0.134,0.389,0.463,0.409,0.463c0.188,0.229,1.248,0.302,1.248,0.302l0.008,0.275
				c-1.223,0.164-3.046,0.404-3.45,1.067c0,0-0.021,3.544,0,3.564c-0.369,0.114-0.651,0.443-0.651,0.443s0,5.007,0,5.229
				c0.074,0.194,0.287,0.311,0.287,0.311h0.341v4.024l0.247,0.247h0.531c0,0,0.02,0.266-0.037,0.247
				c-0.57,0.095-0.76,0.285-0.76,0.285s0,0.019-0.02,1.006c0.607,0.417,3.797,0.532,3.797,0.532L930.076,68.053L930.076,68.053z"/>
			<path id="path3110" stroke="#000000" stroke-width="0.1296" d="M921.972,84.278V84.01h-0.698l-0.12,0.403l-0.806,0.014
				l-0.161-0.752v-0.778l0.147-0.51l0.819-0.027l0.201,0.269v1.141l0.913,0.026l0.013,0.443L921.972,84.278z"/>
			<path id="path3112" stroke="#000000" stroke-width="0.1296" d="M921.74,80.29v-0.268h-0.698l-0.121,0.402l-0.806,0.014
				l-0.16-0.752v-0.778l0.146-0.51l0.819-0.027l0.201,0.269v1.141l0.913,0.027l0.014,0.443L921.74,80.29z"/>
			<path id="path3114" stroke="#000000" stroke-width="0.1296" d="M921.904,76.399V76.13h-0.697l-0.121,0.403l-0.806,0.014
				l-0.161-0.752v-0.778l0.148-0.51l0.818-0.027l0.201,0.269v1.141l0.913,0.027l0.013,0.442L921.904,76.399z"/>
			<path id="path3116" stroke="#000000" stroke-width="0.1296" d="M923.088,72.416v-0.268h-0.698l-0.121,0.403l-0.806,0.013
				l-0.16-0.751v-0.779l0.147-0.51l0.818-0.027l0.202,0.269v1.141l0.912,0.027l0.014,0.443L923.088,72.416z"/>
			<path id="path3118" stroke="#000000" stroke-width="0.1296" d="M932.549,78.251h-0.966c0,0-1.168,0.846-0.04,2.013
				c0.026-0.04,1.262,0.054,1.262,0.054S933.879,79.07,932.549,78.251z"/>
			<path id="path3120" stroke="#000000" stroke-width="0.1296" d="M932.618,82.361h-0.966c0,0-1.168,0.846-0.041,2.014
				c0.027-0.041,1.262,0.054,1.262,0.054S933.947,83.18,932.618,82.361L932.618,82.361z"/>
			<path id="path3122" stroke="#000000" stroke-width="0.1166" d="M932.604,74.496h-0.777c0,0-0.939,0.851-0.033,2.026
				c0.022-0.041,1.016,0.054,1.016,0.054S933.672,75.32,932.604,74.496z"/>
			<path id="path3124" stroke="#000000" stroke-width="0.1104" d="M931.447,71.17h-0.694c0,0-0.841,0.854-0.029,2.032
				c0.02-0.041,0.907,0.054,0.907,0.054S932.403,71.997,931.447,71.17L931.447,71.17z"/>
			<path id="path3126" stroke="#000000" stroke-width="0.1218" d="M923.779,74.821h-0.852c0,0-1.028,0.849-0.035,2.021
				c0.023-0.041,1.111,0.054,1.111,0.054S924.949,75.643,923.779,74.821L923.779,74.821z"/>
			<path id="path3128" stroke="#000000" stroke-width="0.134" d="M924.056,78.643h-0.964c0,0-1.166,0.906-0.041,2.157
				c0.027-0.043,1.26,0.058,1.26,0.058S925.382,79.52,924.056,78.643z"/>
			<path id="path3130" stroke="#000000" stroke-width="0.1263" d="M923.864,82.493h-0.917c0,0-1.107,0.847-0.038,2.017
				c0.025-0.041,1.197,0.054,1.197,0.054S925.125,83.313,923.864,82.493z"/>
			<path id="path3132" stroke="#000000" stroke-width="0.1429" d="M925.63,36.887l3.691,0.049l-0.12,1.36h-3.599L925.63,36.887
				L925.63,36.887z"/>
			<path id="path3134" stroke="#000000" stroke-width="0.1869" d="M929.058,39.715h-3.07l0.002,1.365h3.044L929.058,39.715
				L929.058,39.715z"/>
			<path id="path3136" stroke="#000000" stroke-width="0.2013" d="M926.183,42.635h2.586v1.499h-2.579L926.183,42.635z"/>
			<path id="path3138" stroke="#000000" stroke-width="0.2" d="M926.557,45.319h1.863v0.829h-1.876L926.557,45.319L926.557,45.319z"
				/>
			<path id="path3140" fill="none" stroke="#000000" stroke-width="0.324" d="M926.44,46.938l-0.883-9.985l3.815,0.057l-0.893,9.938
				L926.44,46.938z"/>
			<path id="path3142" fill="none" stroke="#000000" stroke-width="0.311" d="M927.561,36.819v-6.853"/>
		</g>
	</g>
	<g id="layer10">
		<path id="path3090" stroke="#000000" stroke-width="0.1635" d="M894.589,139.637c-0.167,0.595-0.894,1.43-0.956,1.48
			c-5.033,4.001-18.341,4.676-25.574-0.496c-0.286-0.204-1.569-1.822-1.569-1.865c-1.3-11.124-9.132-79.204,12.66-105.559
			c-0.156-0.156,2.349-0.156,2.349-0.156C904.47,56.188,895.705,139.507,894.589,139.637z"/>
	</g>
	<g id="layer9">
		<path id="path3293" stroke="#000000" stroke-width="0.0153" d="M747.834,139.676v-2.31l0.257-0.257l-0.013-7.506
			c0,0-0.372-0.462-0.295-0.539c-0.025-0.09-0.025-0.578-0.025-0.578h0.372v-7.006l-0.347-0.244v-0.218l0.347,0.013l-0.347-0.411
			v-0.385l-0.455-0.263v-0.34l0.43-0.295v-0.449l0.295-0.206v-1.642h-0.27l-0.148-0.258v-0.243l0.157-0.158h1.352v1.21h0.269v0.205
			h0.553v-0.205h0.757v0.256h0.437v0.244h0.371v0.154l0.265,0.071v-0.905l0.211-0.385l0.179-0.18h1.81v0.206h2.117v-0.27h1.989
			v0.257h5.184v-0.308h1.963v0.308h5.248v-0.347h1.925v0.347h5.056v-0.333h2.297v0.295h1.834v-0.282h-0.281v-0.5h-0.206v-0.423
			h0.565v-3.24h-0.373v-0.917h0.167v-6.41v-1.295l-0.449-0.449v-0.392l0.591-0.225v-1.007l-0.162-0.043v-0.258l0.714-0.449
			l1.052-0.314h1.129v-2.925l-0.431-0.331v-0.544h0.444v-0.177h0.187l-0.036-0.134h-0.146l-0.173-0.174v-0.201l0.491-0.284v-0.645
			h0.217c0.354-2.983,2.123-8.738,7.428-10.611v-0.409h0.23v-0.254c0,0-0.411,0.042-0.469-0.235c0-0.072-0.022-0.305,0.243-0.412
			l0.162-0.012v-0.866h0.135v-0.468h0.16v0.423h0.34v-0.744h-0.186v-0.449h0.359v-3.259l-0.398-0.321v-0.256h0.434v-1.022
			l0.408,0.408v0.499h0.317v-1.851h-0.417v-0.327h0.235v-0.998c0,0,0.535-0.844,0.862-0.844v-0.308l-0.281-0.146v-0.145h0.309
			v-0.785h0.237c0,0-0.202-0.138-0.225-0.27l-0.006-0.301c0,0,0.083-0.148,0.18-0.154c0.108-0.008,0.128-0.007,0.128-0.007v-0.167
			c-0.925-0.454-0.198-1.319-0.006-1.229l0.025-1.6l0.155-0.866l0.155,0.866l0.025,1.6c0.191-0.09,0.919,0.776-0.006,1.229v0.167
			c0,0,0.019-0.001,0.128,0.007c0.096,0.006,0.18,0.154,0.18,0.154l-0.007,0.301c-0.021,0.132-0.225,0.27-0.225,0.27h0.238v0.785
			h0.309v0.145l-0.281,0.146v0.308c0.326,0,0.861,0.844,0.861,0.844v0.998h0.236v0.327h-0.418v1.851h0.318v-0.499l0.408-0.408v1.022
			h0.434v0.256l-0.398,0.321v3.259h0.359v0.449h-0.186v0.744h0.34v-0.423h0.16v0.468h0.135v0.866l0.162,0.012
			c0.266,0.107,0.243,0.34,0.243,0.412c-0.058,0.277-0.469,0.235-0.469,0.235v0.254h0.23v0.409
			c5.305,1.873,7.073,7.628,7.427,10.611h0.217v0.645l0.492,0.284v0.201l-0.174,0.174h-0.146l-0.036,0.134h0.188v0.177h0.443v0.544
			l-0.431,0.331v2.925h1.13l1.052,0.314l0.714,0.449v0.258l-0.162,0.043v1.007l0.59,0.225v0.392l-0.449,0.449v1.295v6.41h0.167
			v0.917h-0.372v3.24h0.564v0.423h-0.205v0.5h-0.282v0.201h2.554v-0.373h2.297v0.373h5.089v-0.325h1.971v0.363h5.29v-0.354h2.01
			v0.334h4.66v-0.321h2.529v0.298h10.12v-1.854l-0.298-0.223l-0.014-1.197l0.305-0.135v-0.46h-0.298v-1.542h0.899v-0.609
			l0.443,0.007l-0.277-0.374l-0.144-0.172l-0.019-0.383l0.321,0.008v-0.487h0.142v-4.14l-0.243-0.141l-0.363-0.177v-0.589h0.606
			v-0.899h0.176v-0.629h0.291h0.15v-0.781h-0.182v-0.268h0.182v-0.335h0.287v0.326h0.163v0.277h-0.163v0.45h0.23l0.268-0.431v-1.358
			h-0.201v-0.444h0.307v-0.456h0.229v-0.315h-0.22v-0.345h0.2v-0.325h0.153l-0.033-0.123h0.195l-0.017-0.587l0.284-0.386v-0.75
			l0.518-0.842h0.105c0,0,0.047-0.459,0.277-0.498c0-0.019,0.018-0.336,0.018-0.336c-0.203-0.027-0.296-0.395-0.012-0.517
			c0.002,0-0.009-0.311-0.007-0.312c-0.329-0.103-0.331-0.646,0.12-0.66c0.452,0.016,0.45,0.558,0.121,0.661
			c0.002,0.001-0.009,0.312-0.007,0.311c0.284,0.122,0.191,0.49-0.012,0.517c0,0,0.018,0.317,0.018,0.336
			c0.229,0.038,0.277,0.498,0.277,0.498h0.105l0.518,0.842v0.75l0.284,0.385l-0.018,0.587h0.195l-0.032,0.123h0.153v0.325h0.2v0.345
			h-0.22v0.315h0.229v0.455h0.306v0.444h-0.2v1.358l0.268,0.431h0.229v-0.45h-0.162v-0.277h0.162v-0.325h0.287v0.335h0.182v0.268
			h-0.182v0.781h0.15h0.291v0.629h0.176v0.899h0.607v0.589l-0.363,0.177l-0.244,0.14v4.14h0.143v0.487l0.321-0.008l-0.019,0.383
			l-0.145,0.172l-0.277,0.373l0.443-0.007v0.609h0.9v1.542h-0.299v0.46l0.305,0.135l-0.014,1.198l-0.297,0.223v1.495h1.218v-0.346
			c0,0-0.22-0.191-0.2-0.335c0,0.039,0.004-0.588,0.004-0.588s0.049-0.196,0.154-0.249c-0.015-0.014,0-1.287,0-1.287l0.139-0.134
			c0,0-0.072-0.262,0.164-0.272c-0.014,0,0.248-0.008,0.166,0.312c0-0.005,0.238,0.137,0.238,0.137v0.344h-0.1v0.148h0.162
			l-0.005,1.182h-0.153v1.086v1.868l0.298,0.189v1.008h-0.148v0.588h-0.162v5.547h0.474v0.913h0.317v0.616h-0.155v0.277h-0.474
			v0.906h0.183v0.649h-0.176v0.568h-0.162v7.103h0.311v0.291h0.17v0.169h0.155v2.415L747.834,139.676L747.834,139.676z"/>
	</g>
	<g id="layer8">
		<g id="g3281">
			<g id="g3293">
				<path id="path3295" fill="#1A1A1A" d="M705.092,90.092c0.001,0.356-0.341,0.646-0.762,0.646c-0.422,0-0.764-0.289-0.763-0.646
					c-0.001-0.356,0.341-0.646,0.763-0.646C704.751,89.446,705.093,89.735,705.092,90.092z"/>
				<path id="path3297" fill="#1A1A1A" stroke="#1A1A1A" stroke-width="2.4423" d="M704.238,89.616l0.048-2.047l0.077,2.043
					L704.238,89.616L704.238,89.616z"/>
				<path id="path3299" fill="#1A1A1A" d="M704.585,90.538c-0.085,0.348,0.142,2.485,0.173,2.493
					c2.621,0.668,2.974,2.976,2.974,2.976l0.711,0.006l-0.001,1.302h-0.747l-0.041,9.902l-6.637-0.012l0.014-9.816h-0.714v-1.386
					l0.677-0.006c0,0,0.167-2.449,2.786-2.89c0.033-0.005,0.35-2.167,0.265-2.515L704.585,90.538L704.585,90.538z"/>
			</g>
			<g id="g3301">
				<path id="path3303" stroke="#000000" stroke-width="0.8839" d="M694.242,86.489c0,0.356-0.342,0.646-0.763,0.646
					s-0.763-0.29-0.763-0.646s0.342-0.646,0.763-0.646S694.242,86.133,694.242,86.489z"/>
				<path id="path3305" stroke="#000000" stroke-width="2.4423" d="M693.388,86.014l0.048-2.047l0.077,2.043L693.388,86.014
					L693.388,86.014z"/>
				<path id="path3307" stroke="#000000" stroke-width="0.8276" d="M693.734,86.936c-0.085,0.348,0.142,2.485,0.174,2.493
					c2.621,0.668,2.973,2.976,2.973,2.976l0.711,0.006l-0.001,1.302h-0.747l-0.041,9.902l-6.637-0.012l0.014-9.816h-0.713
					l-0.001-1.386l0.677-0.006c0,0,0.168-2.449,2.787-2.89c0.032-0.005,0.35-2.166,0.264-2.514L693.734,86.936L693.734,86.936z"/>
			</g>
			<path id="path3310" stroke="#000000" stroke-width="0.8839" d="M734.528,86.443c0,0.357-0.341,0.646-0.763,0.646
				c-0.421,0-0.763-0.289-0.763-0.646c0-0.356,0.342-0.646,0.763-0.646C734.188,85.797,734.528,86.086,734.528,86.443z"/>
			<path id="path3312" stroke="#000000" stroke-width="0.2088" d="M733.674,85.967l0.048-2.047l0.077,2.043L733.674,85.967
				L733.674,85.967z"/>
			<g id="g3314">
				<path id="path3316" fill="#1A1A1A" d="M724.999,89.866c0,0.328-0.328,0.593-0.734,0.593c-0.405,0-0.734-0.266-0.733-0.593
					c-0.001-0.327,0.328-0.593,0.733-0.593C724.671,89.273,724.999,89.539,724.999,89.866z"/>
				<path id="path3318" fill="#1A1A1A" stroke="#1A1A1A" stroke-width="2.3223" d="M724.176,89.43l0.047-1.88l0.074,1.877
					L724.176,89.43L724.176,89.43z"/>
				<path id="path3321" fill="#1A1A1A" d="M724.511,90.276c-0.083,0.319,0.136,2.282,0.167,2.29
					c2.523,0.613,2.862,2.732,2.862,2.732l0.685,0.006l-0.001,1.196h-0.72l-0.039,9.095l-6.391-0.011l0.014-9.017h-0.687
					l-0.001-1.273l0.652-0.006c0,0,0.16-2.249,2.683-2.654c0.031-0.005,0.337-1.99,0.255-2.31L724.511,90.276L724.511,90.276z"/>
			</g>
			<path id="path3323" stroke="#000000" stroke-width="0.0708" d="M734.037,86.996c-0.086,0.348,0.141,2.485,0.173,2.493
				c2.621,0.668,2.974,2.976,2.974,2.976l0.711,0.006l-0.002,1.302h-0.746l-0.042,9.902l-6.636-0.012l0.013-9.816h-0.713
				l-0.001-1.386l0.678-0.006c0,0,0.167-2.449,2.786-2.89c0.032-0.005,0.35-2.166,0.265-2.514L734.037,86.996L734.037,86.996z"/>
			<path id="path3325" stroke="#000000" stroke-width="0.0696" d="M743.814,103.993c0,0,0.003-1.433,0.001-1.428
				c-0.188-0.131-1.231-0.21-1.231-0.21v1.781l-1.101-0.141l-0.016-1.682c-0.674-0.107-0.962-0.141-1.595-0.164l0.011,1.615
				l-1.187-0.139v-1.517c-0.877-0.026-1.507-0.033-1.507-0.033l0.021,1.511l-1.721-0.009h-1.526v-1.605h-2.374l0.021,1.624
				l-1.506-0.007v-1.605l-2.336,0.007l-0.006,1.622l-1.516-0.008V102h-2.374l0.011,1.627l-1.496-0.01v-1.605h-2.374l0.021,1.621
				l-1.507-0.002v-1.605h-2.374l0.021,1.625l-1.506-0.004v-1.605h-2.374l0.011,1.621l-1.496-0.002v-1.605h-2.373l0.016,1.625
				l-1.5-0.006v-1.604h-2.373l0.021,1.623l-1.506-0.007v-1.604h-2.374v1.595h-1.512v-1.555h-9.043l0.074,26.488
				c-0.08,0.017,43.941-0.14,44.021-0.141c0,0,9.023-0.127,9.538-1.227C743.83,126.763,743.814,104.025,743.814,103.993
				L743.814,103.993z"/>
			<path id="path3056" stroke="#000000" stroke-width="0.24" d="M687.284,133.674l-0.011-2.863c0,0-0.563-0.096-0.53-0.308
				s0.351-0.059,0.445-0.318c0.304-0.833-0.148-1.442-0.96-1.455c-0.896,0.003-1.296,0.628-0.992,1.461
				c0.095,0.26,0.414,0.106,0.445,0.318c0.032,0.212-0.529,0.308-0.529,0.308l-0.027,2.709v0.159L687.284,133.674L687.284,133.674z"
				/>
		</g>
	</g>
	<g id="layer6">
		<path id="path2235" fill="#0E0E0E" d="M516.668,126.671c-2.217,2.256-20.388,3.881-24.773,0.287
			c0.027,0.013-0.86-2.459-0.86-2.459s-1.286-0.214-1.38-0.511c0.002,0.063-0.194-1.78-0.194-1.78s-1.634-0.098-1.837-0.322
			c-0.006,0.01-0.208-3.167-0.208-3.167s-1.147-0.053-1.312-0.295c-0.014,0.041-0.014-1.858-0.014-1.858
			c0.018,0.011-0.892,0.096-1.195-0.229c-0.024,0.002-0.06-2.623-0.06-2.623s-0.649,0.068-0.893-0.189
			c-0.013-0.119-0.033-2.54-0.033-2.54c-0.789-0.053-0.683-0.375-0.683-0.375l0.083-2.324c-0.25-0.039-0.599-0.326-0.56-0.451
			l0.143-2.333c-0.375-0.171-0.43-0.572-0.43-0.645l0.236-2.129c0,0-0.021,0.042-0.235-0.117c-0.096-0.083,0.18-1.754,0.292-1.826
			c0.386-0.483,0.017,0.099-0.217-0.608c-0.025-0.155,0.326-2.316,0.756-2.521c0.215-0.06,3.252-0.609,4.902-0.647
			c-0.049,0.019,3.853,0,3.853,0s6.541,0.71,9.375,2.246c-0.214-0.151,4.678,2.539,5.415,3.051c-0.02-0.019,5.766,4.502,7.521,8.013
			c-0.055-0.107,2.169,3.939,2.553,5.547c-0.017-0.083,0.719,1.939,1.108,3.775c0.243,1.145,0.336,1.849,0.429,2.549
			c0.055,0.054-1.536,0.95-1.723,0.837l-0.027,2.506v0.247L516.668,126.671z"/>
	</g>
	<g id="layer5">
		<g id="g3843">
			<path id="path3146" fill="#0D0D0D" d="M462.027,134.686c0,0-16.951,0.585-17.717,0.09c-0.09,0.045-1.553,1.44-2.161,2.679
				c0.022-0.067-0.766-0.09-0.766-0.09s0.598-1.739,0.454-2.249c-0.048,0.064-2.896-0.589-3.74-0.685
				c0.063,0.032-0.796,0.127-1.114,2.626c0.016-0.096-0.732-0.016-0.732-0.016s0-2.499-0.828-2.85
				c-0.031-0.016-10.259-1.512-13.772-2.292c0,0-2.416,1.003-3.18,1.958c-0.382-0.159-0.382-0.159-0.382-0.159
				s2.021-2.229,1.942-2.945c-0.049-0.016,0.068-0.684-1.13-0.543c-0.017,0.011-2.888,1.953-3.259,2.459l-0.315-0.242
				c0,0,1.768-3.022,1.069-3.72c-0.022-0.022-1.666-2.062-2.686-1.886c0.064-0.048-4.346,1.369-4.346,1.369l-0.031-0.263
				c0,0,2.029-1.218,1.966-1.297c0,0-2.174,0.479-2.186,0.659c-0.034-0.158-0.045-0.203-0.045-0.203l3.568-3.027
				c0.337-0.315,4.901-3.562,11.585-6.665c0.66-0.307,9.41-5.249,26.338-5.313c-0.095,0,18.918-1.057,35.261,12
				c0,0,1.283,1.396,2.341,2.296c0.045,0.135-0.157,0.067-0.157,0.067s-2.882-1.418-3.399-0.45c-0.022,0-0.676,1.531-0.067,2.702
				c0.607,1.17,1.823,2.881,1.823,2.881l-0.157,0.09c0,0-2.589-2.881-3.805-2.543c0.112,0.045-1.306,0.203,1.913,3.376
				c0.023,0-0.202,0.203-0.202,0.203s-2.904-2.319-4.029-2.161c-0.946,0.225-10.063,2.679-10.063,2.679s-0.788,1.733-0.315,2.971
				c-0.09,0.022-0.473,0.158-0.473,0.158s-1.193-2.521-1.599-2.521c-0.878,0.09-3.399,0.721-3.399,0.721s0.428,1.823,0.811,2.296
				c-0.54,0.022-0.54,0.045-0.54,0.045S462.387,134.686,462.027,134.686L462.027,134.686z"/>
			<path id="path3148" fill="#0D0D0D" d="M424.523,117.42l-3.646-13.327l-0.136-2.611l1.306,2.521l3.917,12.606L424.523,117.42z"/>
			<path id="path3150" fill="#0D0D0D" d="M422.813,106.074l-0.271-3.557l1.306,2.836l2.972,11.301l-0.945,0.315L422.813,106.074z"/>
			<path id="path3152" fill="#0D0D0D" d="M428.98,115.304l-2.387-11.751l-0.225-2.701l0.99,2.566l2.972,11.525L428.98,115.304z"/>
			<path id="path3154" fill="#0D0D0D" d="M434.788,113.976l-1.125-7.496l0.045-3.422l1.125,3.287l1.171,7.609L434.788,113.976
				L434.788,113.976z"/>
			<path id="path3156" fill="#0D0D0D" d="M437.254,113.292l-1.02-9.773l0.096-2.77l0.828,3.088l1.178,9.423L437.254,113.292
				L437.254,113.292z"/>
			<path id="path3158" fill="#0D0D0D" d="M447.623,112.511l0.104-9.342l0.351-2.706l0.541,2.61l0.127,9.423L447.623,112.511
				L447.623,112.511z"/>
			<path id="path3160" fill="#0D0D0D" d="M450.911,112.146l0.159-5.125l0.764-3.756l0.637,3.979l-0.127,5.03L450.911,112.146z"/>
			<path id="path3162" fill="#0D0D0D" d="M458.233,112.592l0.987-9.009l0.731-2.802l0.191,3.215l-0.955,8.787L458.233,112.592z"/>
			<path id="path3164" fill="#0D0D0D" d="M465.969,114.12l1.656-7.672l1.273-3.47l-0.318,3.852l-1.433,7.768L465.969,114.12z"/>
			<path id="path3166" fill="#0D0D0D" d="M468.07,114.725l2.197-10.601l0.19-2.993l-1.05,3.12l-2.293,10.251L468.07,114.725z"/>
			<path id="path3168" fill="#0D0D0D" d="M472.909,116.444l3.407-11.238l1.273-2.674l-0.287,3.311l-3.024,11.334L472.909,116.444z"
				/>
		</g>
	</g>
	<g id="layer7">
		<g id="g12775">
			<path id="path2236" stroke="#000000" d="M540.626,94.527l0.506,0.011l0.442-2.457l0.205-0.889l-0.289-0.021l-0.027-0.188
				l0.363-0.012l0.285-1.784l0.135-0.98l0.115,1.002l0.301,1.762l0.289,0.011l0.031,0.203l-0.298-0.022l0.831,5.121l0.058,35.492
				l0,0l-11.002-0.001V96.281l0.846-5.209l-0.263,0.024l0.021-0.174l0.265-0.021l0.263-1.393l0.165-1.169l0.094,1.177l0.253,1.324
				l0.264,0.019L534.469,91l-0.22,0.023l0.264,1.057l0.814,2.442l0.505-0.004l2.309-8.219L540.626,94.527L540.626,94.527z"/>
			<path id="path7339" stroke="#000000" d="M608.679,94.485h0.7l0.442-2.479l0.205-0.889l-0.289-0.021l-0.027-0.188l0.362-0.012
				l0.286-1.784l0.134-0.98l0.116,1.002l0.3,1.762l0.29,0.011l0.03,0.203l-0.297-0.022l0.83,5.121l0.059,35.492l0,0l-11.002-0.001
				V96.206l0.846-5.209L601.4,91.02l0.021-0.174l0.266-0.021l0.263-1.394l0.165-1.168l0.094,1.177l0.252,1.324l0.265,0.019
				l-0.011,0.142l-0.219,0.022l0.264,1.057l0.696,2.552l0.649,0.004l2.282-8.337L608.679,94.485L608.679,94.485z"/>
			<path id="path7342" stroke="#000000" d="M600.836,102.09l-26.097,0.008v-0.501c0,0,0.159-1.01-0.471-0.957
				c0.022-0.008-0.569-0.091-0.517,0.828l-1.268-0.015l-0.016-0.782c0,0,0.865-1.017-0.296-1.382
				c-0.59,0.238-0.585,0.801-0.243,1.306c0.162,0.239,0.062,0.614,0.061,0.874l-1.29,0.007c0,0,0.041-0.821-0.319-0.82
				c0,0-0.796-0.202-0.614,1.18h-26.33v3.895h58.688v-3.65L600.836,102.09L600.836,102.09z"/>
			<g id="g13443">
				<path id="path8345" fill="none" stroke="#000000" stroke-width="3.3" d="M533.424,105.993
					c-16.784,16.76-25.183,24.523-46.655,25.19c0,0-16.812,0.961-26.241-6.203c0,0.043,0,0.043,0,0.043"/>
				<path id="path8336" fill="none" stroke="#000000" stroke-width="3.3" d="M533.164,105.118c0,0-23.911,22.21-46.465,24.767
					c0,0-11.734,0.994-26.493-6.417"/>
				<path id="path11254" fill="none" stroke="#000000" d="M527,110.351l-1.791,3.766"/>
				<path id="path11256" fill="none" stroke="#000000" d="M524.298,112.112l3.644-0.243"/>
				<path id="path11258" fill="none" stroke="#000000" d="M524.783,112.233l-1.336,3.28l0,0l0.121-0.091"/>
				<path id="path11262" fill="none" stroke="#000000" d="M517.966,117.168l3.766-0.273"/>
				<path id="path11264" fill="none" stroke="#000000" d="M517.191,117.608l-3.492,5.558"/>
				<path id="path11266" fill="none" stroke="#000000" d="M513.047,120.326l5.102,0.273"/>
				<path id="path11268" fill="none" stroke="#000000" d="M512.378,120.509l-3.401,5.739"/>
				<path id="path11270" fill="none" stroke="#000000" d="M508.643,122.482l4.465,1.701"/>
				<path id="path11272" fill="none" stroke="#000000" d="M507.854,123.029l-3.553,5.253"/>
				<path id="path11274" fill="none" stroke="#000000" d="M504.058,124.729l4.524,2.005"/>
				<path id="path11276" fill="none" stroke="#000000" d="M503.633,125.064l-3.888,4.585"/>
				<path id="path11278" fill="none" stroke="#000000" d="M499.594,126.704l4.068,1.792"/>
				<path id="path11280" fill="none" stroke="#000000" d="M498.196,127.311l-3.007,3.31"/>
				<path id="path11282" fill="none" stroke="#000000" d="M494.855,128.313l3.492,1.548"/>
				<path id="path11284" fill="none" stroke="#000000" d="M493.58,128.799c-0.121,0-2.793,2.187-2.793,2.187"/>
				<path id="path11286" fill="none" stroke="#000000" d="M490.604,129.315l2.976,1.427"/>
				<path id="path11288" fill="none" stroke="#000000" d="M489.724,129.71l-2.187,1.579"/>
				<path id="path11290" fill="none" stroke="#000000" stroke-width="2" d="M487.233,130.014l3.098,1.306"/>
				<path id="path12267" fill="none" stroke="#000000" stroke-width="2" d="M526.712,112.522v21.318"/>
				<path id="path12269" fill="none" stroke="#000000" stroke-width="2" d="M522.156,113.858v20.104"/>
				<path id="path12271" fill="none" stroke="#000000" stroke-width="2" d="M517.602,116.713v17.218"/>
				<path id="path12273" fill="none" stroke="#000000" stroke-width="2" d="M512.925,119.871v13.969"/>
				<path id="path12275" fill="none" stroke="#000000" stroke-width="2" d="M508.188,122.482v11.358"/>
				<path id="path12277" fill="none" stroke="#000000" stroke-width="2" d="M503.814,124.426v9.353l0.117-0.067l0.004,0.007"/>
				<path id="path12279" fill="none" stroke="#000000" stroke-width="2" d="M499.198,126.37v7.471"/>
				<path id="path12281" fill="none" stroke="#000000" stroke-width="2" d="M494.765,127.949v6.013"/>
				<path id="path12283" fill="none" stroke="#000000" stroke-width="2" d="M490.148,129.224v4.798"/>
				<path id="path12376" fill="none" stroke="#000000" d="M522.415,113.964l3.386-0.212"/>
				<path id="path12378" fill="none" stroke="#000000" d="M521.124,114.814l-2.794,5.072"/>
				<path id="path7591" fill="none" stroke="#000000" stroke-width="2" d="M481.373,133.756v-4.16"/>
				<path id="path7593" fill="none" stroke="#000000" stroke-width="2" d="M476.544,133.756v-4.768"/>
				<path id="path7595" fill="none" stroke="#000000" stroke-width="2" d="M471.988,133.665v-5.74"/>
				<path id="path7597" fill="none" stroke="#000000" stroke-width="2" d="M467.403,133.513v-6.955h0.121"/>
				<path id="path7599" fill="none" stroke="#000000" stroke-width="2" d="M462.97,133.331v-8.594"/>
				<path id="path8572" fill="none" stroke="#000000" d="M481.524,130.841l3.583-0.82"/>
				<path id="path8574" fill="none" stroke="#000000" d="M481.555,129.535l3.826,1.67"/>
				<path id="path8576" fill="none" stroke="#000000" d="M476.727,130.477l4.98-0.668"/>
				<path id="path8578" fill="none" stroke="#000000" d="M476.787,128.958l4.677,2.308v-0.03l0,0"/>
				<path id="path8580" fill="none" stroke="#000000" d="M472.049,129.808l4.373-0.729"/>
				<path id="path8582" fill="none" stroke="#000000" d="M472.11,127.986l4.19,2.733"/>
				<path id="path8584" fill="none" stroke="#000000" d="M467.494,128.745l4.434-0.85"/>
				<path id="path8586" fill="none" stroke="#000000" d="M467.524,126.498l4.373,3.341l0,0"/>
				<path id="path8588" fill="none" stroke="#000000" d="M463.03,126.893l4.251-0.364"/>
				<path id="path8590" fill="none" stroke="#000000" d="M463.151,124.707l4.069,3.826"/>
			</g>
			<g id="g12056">
				<g id="g11860">
					<path id="path11862" fill="none" stroke="#000000" stroke-width="3.3" d="M610.688,106.093
						c16.783,16.759,25.182,24.523,46.654,25.19c0,0,16.813,0.961,26.241-6.203"/>
					<path id="path11864" fill="none" stroke="#000000" stroke-width="3.3" d="M610.947,105.218c0,0,23.911,22.209,46.465,24.767
						c0,0,11.734,0.993,26.493-6.417"/>
					<path id="path11866" fill="none" stroke="#000000" d="M617.111,110.45l1.791,3.766"/>
					<path id="path11868" fill="none" stroke="#000000" d="M619.813,112.212l-3.644-0.243"/>
					<path id="path11870" fill="none" stroke="#000000" d="M619.328,112.333l1.336,3.28l0,0l-0.121-0.091"/>
					<path id="path11872" fill="none" stroke="#000000" d="M626.146,117.268l-3.766-0.273"/>
					<path id="path11874" fill="none" stroke="#000000" d="M626.92,117.708l3.492,5.557"/>
					<path id="path11876" fill="none" stroke="#000000" d="M631.065,120.426l-5.103,0.273"/>
					<path id="path11878" fill="none" stroke="#000000" d="M631.733,120.608l3.401,5.74"/>
					<path id="path11880" fill="none" stroke="#000000" d="M635.469,122.583l-4.465,1.701"/>
					<path id="path11882" fill="none" stroke="#000000" d="M636.258,123.129l3.553,5.254"/>
					<path id="path11884" fill="none" stroke="#000000" d="M640.055,124.83l-4.525,2.004"/>
					<path id="path11886" fill="none" stroke="#000000" d="M640.479,125.164l3.887,4.585"/>
					<path id="path11888" fill="none" stroke="#000000" d="M644.518,126.804l-4.068,1.792"/>
					<path id="path11890" fill="none" stroke="#000000" d="M645.915,127.411l3.007,3.31"/>
					<path id="path11892" fill="none" stroke="#000000" d="M649.256,128.413l-3.492,1.549"/>
					<path id="path11894" fill="none" stroke="#000000" d="M650.531,128.899c0.121,0,2.794,2.187,2.794,2.187"/>
					<path id="path11896" fill="none" stroke="#000000" d="M653.507,129.415l-2.976,1.428"/>
					<path id="path11898" fill="none" stroke="#000000" d="M654.388,129.81l2.187,1.579"/>
					<path id="path11900" fill="none" stroke="#000000" stroke-width="2" d="M656.878,130.114l-3.098,1.306"/>
					<path id="path11902" fill="none" stroke="#000000" stroke-width="2" d="M617.399,112.622v21.318"/>
					<path id="path11904" fill="none" stroke="#000000" stroke-width="2" d="M621.955,113.958v20.104"/>
					<path id="path11906" fill="none" stroke="#000000" stroke-width="2" d="M626.51,116.813v17.219"/>
					<path id="path11908" fill="none" stroke="#000000" stroke-width="2" d="M631.187,119.971v13.969"/>
					<path id="path11910" fill="none" stroke="#000000" stroke-width="2" d="M635.924,122.583v11.357"/>
					<path id="path11912" fill="none" stroke="#000000" stroke-width="2" d="M640.297,124.526v9.354l-0.117-0.068l-0.004,0.007"/>
					<path id="path11914" fill="none" stroke="#000000" stroke-width="2" d="M644.913,126.47v7.47"/>
					<path id="path11916" fill="none" stroke="#000000" stroke-width="2" d="M649.347,128.049v6.013"/>
					<path id="path11918" fill="none" stroke="#000000" stroke-width="2" d="M653.963,129.324v4.798"/>
					<path id="path11920" fill="none" stroke="#000000" d="M621.696,114.064l-3.386-0.213"/>
					<path id="path11922" fill="none" stroke="#000000" d="M622.987,114.915l2.794,5.071"/>
					<path id="path11924" fill="none" stroke="#000000" stroke-width="2" d="M662.739,133.856v-4.161"/>
					<path id="path11926" fill="none" stroke="#000000" stroke-width="2" d="M667.567,133.856v-4.768"/>
					<path id="path11928" fill="none" stroke="#000000" stroke-width="2" d="M672.123,133.765v-5.739"/>
					<path id="path11930" fill="none" stroke="#000000" stroke-width="2" d="M676.708,133.613v-6.955h-0.121"/>
					<path id="path11932" fill="none" stroke="#000000" stroke-width="2" d="M681.143,133.431v-8.594"/>
					<path id="path11934" fill="none" stroke="#000000" d="M662.587,130.94l-3.583-0.82"/>
					<path id="path11936" fill="none" stroke="#000000" d="M662.557,129.635l-3.826,1.67"/>
					<path id="path11938" fill="none" stroke="#000000" d="M667.385,130.576l-4.979-0.668"/>
					<path id="path11940" fill="none" stroke="#000000" d="M667.324,129.058l-4.676,2.308v-0.03l0,0"/>
					<path id="path11942" fill="none" stroke="#000000" d="M672.063,129.908l-4.373-0.729"/>
					<path id="path11944" fill="none" stroke="#000000" d="M672.001,128.086l-4.19,2.733"/>
					<path id="path11946" fill="none" stroke="#000000" d="M676.617,128.845l-4.434-0.85"/>
					<path id="path11948" fill="none" stroke="#000000" d="M676.587,126.598l-4.373,3.34l0,0"/>
					<path id="path11950" fill="none" stroke="#000000" d="M681.081,126.993l-4.251-0.364"/>
					<path id="path11952" fill="none" stroke="#000000" d="M680.96,124.806l-4.069,3.827"/>
				</g>
				<path id="path11954" fill="none" stroke="#000000" stroke-width="2.1378" d="M690.257,123.594l15.335,9.249"/>
				<path id="path11956" fill="none" stroke="#000000" stroke-width="2.1378" d="M689.635,124.109l14.529,8.975"/>
			</g>
			<path id="path2241" stroke="#000000" d="M487.238,134.242l-0.011-2.899c0,0-0.569-0.097-0.536-0.311
				c0.031-0.215,0.354-0.059,0.45-0.322c0.309-0.843-0.149-1.46-0.972-1.473c-0.907,0.003-1.313,0.636-1.004,1.479
				c0.096,0.263,0.418,0.107,0.451,0.322c0.031,0.214-0.537,0.311-0.537,0.311l-0.027,2.744v0.161L487.238,134.242L487.238,134.242z
				"/>
			<path id="path2249" stroke="#000000" d="M658.975,134.229l-0.012-2.899c0,0-0.568-0.097-0.536-0.311
				c0.032-0.215,0.354-0.06,0.45-0.322c0.309-0.844-0.15-1.46-0.972-1.474c-0.907,0.003-1.312,0.636-1.004,1.479
				c0.096,0.263,0.419,0.107,0.451,0.322s-0.537,0.311-0.537,0.311l-0.026,2.744v0.161L658.975,134.229L658.975,134.229z"/>
			<path id="path10593" stroke="#000000" stroke-width="0.9041" d="M453.291,134.264l76.164,0.011l0.001-0.432l0,0
				c-0.007,0-67.755-0.144-76.169-0.149L453.291,134.264L453.291,134.264z"/>
			<path id="path2253" stroke="#000000" stroke-width="0.9041" d="M453.298,131.642h76.296v1.449h-76.296V131.642L453.298,131.642z"
				/>
			<g id="g2268">
				<path id="path2264" stroke="#000000" d="M614.786,131.733h136.101v1.503H614.648L614.786,131.733z"/>
				<path id="path2266" stroke="#000000" d="M750.686,133.865c-0.012,0-136.418-0.054-136.418-0.054l0.011,0.502h136.407V133.865
					L750.686,133.865z"/>
			</g>
			<path id="path2276" stroke="#000000" d="M597.5,131.661h17.826v10.082h-17.918L597.5,131.661z"/>
			<path id="path2280" stroke="#000000" d="M529.202,131.661h17.826v10.082h-17.917L529.202,131.661z"/>
			<g id="g4241">
				<path id="path2291" stroke="#000000" d="M545.484,132.492l22.936-11.431l0.682,1.353l-22.95,11.428L545.484,132.492z"/>
				<path id="path2296" fill="none" stroke="#000000" stroke-width="3" d="M545.619,139.341
					c0.017,0.003,13.939-11.523,23.158-16.236l0.645-0.329"/>
				<path id="path3270" fill="none" stroke="#000000" stroke-width="2.9" d="M548.057,137.237l-2.226-3.858l4.18,1.63l-1.354-2.789
					l3.96,0.943l-1.326-2.687l3.677,0.928l-1.092-2.287l3.461,0.663l-0.923-1.854l2.87,0.394l-0.823-1.413l2.621,0.254l-0.68-1.221
					l2.275,0.138l-0.536-1.028l2.074,0.07l-0.766-1.489l0,0"/>
			</g>
			<g id="g4247">
				<path id="path4249" stroke="#000000" d="M598.691,132.282l-22.936-11.431l-0.682,1.353l22.949,11.428L598.691,132.282z"/>
				<path id="path4251" fill="none" stroke="#000000" stroke-width="3" d="M598.556,139.131
					c-0.017,0.003-13.938-11.523-23.158-16.236l-0.644-0.33"/>
				<path id="path4253" fill="none" stroke="#000000" stroke-width="2.9" d="M596.118,137.027l2.227-3.858l-4.181,1.629l1.355-2.789
					l-3.961,0.943l1.326-2.687l-3.676,0.928l1.091-2.287l-3.461,0.663l0.924-1.854l-2.871,0.394l0.823-1.413l-2.621,0.254
					l0.68-1.221l-2.275,0.138l0.536-1.028l-2.074,0.071l0.767-1.49l0,0"/>
			</g>
			<path id="path12772" stroke="#000000" stroke-width="0.2055" d="M456.831,111.625c0.083-0.037,0.149-0.134,0.149-0.236l0,0
				c0-0.134-0.104-0.244-0.23-0.244c-0.128,0-0.231,0.109-0.231,0.244c0,0.105,0.063,0.196,0.162,0.235l-0.023,1.366l-0.387,0.005
				v0.262h0.145c0,0,0.032,0.398-0.044,0.691c-1.002,2.611-1.928,2.929-1.928,2.929l-1.129-0.011l-0.545,1.043l-0.011,3.578
				l-0.581,0.006l-0.008,0.804h0.6v8.38l-0.665,1.724l0.021,8.618l0,0l9.15,0l-0.021-8.731l-0.687-1.724v-8.267h0.6l-0.008-0.803
				l-0.581-0.007l-0.011-3.578l-0.48-0.998l-0.996-0.035c0,0-0.805-0.493-1.94-2.966c-0.029-0.452,0.003-0.655-0.002-0.659l0,0
				l0.144,0.002l-0.002-0.269h-0.393L456.831,111.625L456.831,111.625z"/>
			<path id="path12108" stroke="#000000" stroke-width="0.2055" d="M687.143,111.625c0.083-0.037,0.148-0.134,0.148-0.236l0,0
				c0-0.134-0.103-0.244-0.23-0.244c-0.127,0-0.23,0.109-0.23,0.244c0,0.105,0.063,0.196,0.162,0.235l-0.023,1.366l-0.387,0.005
				v0.262h0.145c0,0,0.032,0.398-0.044,0.691c-1.002,2.611-1.928,2.929-1.928,2.929l-1.129-0.011l-0.545,1.043l-0.011,3.578
				l-0.581,0.006l-0.008,0.804h0.6v8.38l-0.665,1.724l0.021,8.618l0,0l9.15,0l-0.021-8.731l-0.688-1.724v-8.267h0.6l-0.008-0.803
				l-0.58-0.007l-0.012-3.578l-0.48-0.998l-0.996-0.035c0,0-0.805-0.493-1.939-2.966c-0.029-0.452,0.003-0.655-0.003-0.659l0,0
				l0.144,0.002l-0.002-0.269h-0.393L687.143,111.625L687.143,111.625z"/>
		</g>
	</g>
	<g id="layer4">
		<path id="path2912" stroke="#000000" stroke-width="0.0718" d="M405.483,121.661h10.995v-1.574h-1.089v-1.292h-1.251v-2.945
			l-0.764-0.441v-4.281l0.723-0.504v-0.505l-0.786-0.484v-0.444l0.01-0.324c0,0,0.015-0.271-0.242-0.286
			c0.014-0.014,0.156-0.456-0.2-0.613c0.043,0-0.242-29.631-0.242-29.631s-0.195-0.154-0.318-0.184
			c0.062-0.03,0.347-2.455,1.031-3.026c0.001-0.051-0.003-0.104-0.003-0.104l-0.136-0.01v-0.172l0.166-0.07v-0.142
			c0,0-0.681-0.055-0.807-0.328c-0.006-0.025-0.277-1.377-0.959-1.523c0.033-0.003-0.479-0.005-0.535-0.004
			c-0.056,0.001-0.58,0.005-0.535,0.006c-0.559,0.079-0.953,1.498-0.958,1.523c-0.126,0.272-0.807,0.328-0.807,0.328v0.141
			l0.166,0.071v0.171l-0.136,0.01c0,0-0.004,0.052-0.003,0.104c0.685,0.57,0.97,2.996,1.032,3.026
			c-0.124,0.03-0.319,0.184-0.319,0.184s-0.285,29.631-0.242,29.631c-0.356,0.157-0.214,0.599-0.2,0.613
			c-0.256,0.014-0.242,0.286-0.242,0.286l0.01,0.323v0.444l-0.787,0.484v0.504l0.724,0.504v4.281l-0.764,0.44v2.946h-1.251v1.292
			h-1.09v1.573h10.996"/>
		<path id="path2914" stroke="#000000" stroke-width="0.0718" d="M410.177,72.973l-0.995-0.009c0,0,0.287-0.386,0.322-0.619
			c0.054-0.233,0.368-0.278,0.413-0.449c0,0.054,0.269-1.687,0.386-1.759c0.116-0.072-0.107-0.099-0.107-0.099
			s-0.072,0.188-0.189,0.197c-0.107,0.009-0.206-0.52-0.206-0.52l-0.009-0.592l0.081-0.054l0.018-0.179l0.287-0.063
			c0,0,0.116,0.018,0.216,0.108c0.009,0,0.125-0.135,0.232-0.108c0.1,0.009,0.036-0.359,0.036-0.359l-0.305-0.018
			c0,0,0.197-0.924,0.655-0.987c0.009,0-0.012-0.123,0.018-0.134c0.083-0.034,0.143-0.016,0.161,0
			c0.014,0.011,0.019,0.188,0.019,0.188s0.18,0.125,0.269,0.251c-0.009-0.054,0.153,0.251,0.153,0.251s0.09,0.012,0.098,0.019
			c0.023,0.018,0,0.175-0.009,0.197c-0.004,0.012-0.224,0.054-0.224,0.054l-0.135,0.072l-0.063,0.036l-0.019,0.458l0.216,0.107
			l0.035,0.072c0,0,0.197-0.021,0.323,0c0.027,0.004,0.144,0.197,0.108,0.386c-0.019,0.188,0.08,0.476,0.08,0.476l0.126,0.287
			l0.081,0.35l0.188,0.045l0.072,0.134l-0.009,0.117l-0.216,0.09l-0.476,2.028l-0.144-0.054l0.521-2.019
			c0,0-0.116,0.009-0.171-0.045c-0.053-0.054-0.287-0.592-0.277-0.709c-0.018-0.018-0.09-0.027-0.09-0.027v0.243l0.063,0.036
			l-0.009,1.14l-0.135,0.601l-0.26,0.027c0,0-0.081,0.197-0.027,0.251c0,0.018,0.368,0.036,0.359,0.421
			C411.567,72.793,410.177,72.99,410.177,72.973L410.177,72.973z"/>
	</g>
	<g id="layer3">
		<g id="g3766">
			<path id="path2836" d="M364.154,55.462c0,1.266-1.025,2.292-2.291,2.292s-2.292-1.026-2.292-2.292s1.026-2.292,2.292-2.292
				S364.154,54.196,364.154,55.462z"/>
			<path id="path2838" d="M355.355,57.17c0,1.266-1.025,2.292-2.291,2.292s-2.292-1.026-2.292-2.292s1.026-2.291,2.292-2.291
				S355.355,55.904,355.355,57.17z"/>
			<path id="path2840" d="M348.289,59.921c0,1.266-1.026,2.292-2.292,2.292s-2.292-1.026-2.292-2.292s1.026-2.292,2.292-2.292
				S348.289,58.656,348.289,59.921z"/>
			<path id="path2842" d="M341.707,64.129c0,1.266-1.025,2.292-2.291,2.292s-2.292-1.026-2.292-2.292s1.026-2.292,2.292-2.292
				S341.707,62.863,341.707,64.129z"/>
			<path id="path2844" d="M336.313,69.362c0,1.266-1.025,2.292-2.291,2.292s-2.292-1.026-2.292-2.292s1.026-2.292,2.292-2.292
				S336.313,68.096,336.313,69.362z"/>
			<path id="path2846" d="M331.943,75.565c0,1.266-1.025,2.292-2.291,2.292s-2.292-1.026-2.292-2.292s1.026-2.292,2.292-2.292
				S331.943,74.3,331.943,75.565z"/>
			<path id="path2848" d="M328.707,82.686c0,1.266-1.026,2.292-2.292,2.292s-2.292-1.026-2.292-2.292s1.026-2.292,2.292-2.292
				S328.707,81.42,328.707,82.686z"/>
			<path id="path2850" d="M326.98,90.238c0,1.266-1.025,2.292-2.291,2.292s-2.292-1.026-2.292-2.292s1.026-2.292,2.292-2.292
				S326.98,88.973,326.98,90.238z"/>
			<path id="path2852" d="M326.441,97.898c0,1.266-1.026,2.292-2.292,2.292s-2.292-1.026-2.292-2.292s1.026-2.292,2.292-2.292
				S326.441,96.633,326.441,97.898z"/>
			<path id="path2854" d="M327.735,105.774c0,1.266-1.025,2.292-2.291,2.292s-2.292-1.026-2.292-2.292s1.026-2.292,2.292-2.292
				S327.735,104.509,327.735,105.774z"/>
			<path id="path2856" d="M330.217,113.111c0,1.266-1.025,2.292-2.291,2.292s-2.292-1.026-2.292-2.292s1.026-2.292,2.292-2.292
				S330.217,111.846,330.217,113.111z"/>
			<path id="path2858" d="M334.371,120.34c0,1.266-1.026,2.292-2.292,2.292s-2.291-1.026-2.291-2.292s1.025-2.292,2.291-2.292
				S334.371,119.074,334.371,120.34z"/>
			<path id="path2860" d="M340.574,126.813c0,1.266-1.025,2.292-2.291,2.292s-2.292-1.026-2.292-2.292
				c0-1.265,1.026-2.292,2.292-2.292S340.574,125.548,340.574,126.813z"/>
			<path id="path2862" d="M347.533,131.722c0,1.266-1.025,2.292-2.291,2.292s-2.292-1.026-2.292-2.292s1.026-2.292,2.292-2.292
				S347.533,130.457,347.533,131.722z"/>
			<path id="path2864" d="M356.621,135.229c0,1.266-1.026,2.292-2.292,2.292s-2.292-1.026-2.292-2.292s1.026-2.292,2.292-2.292
				S356.621,133.963,356.621,135.229z"/>
			<path id="path2866" d="M367.036,136.088c0,1.266-1.026,2.292-2.292,2.292s-2.291-1.026-2.291-2.292s1.025-2.292,2.291-2.292
				S367.036,134.822,367.036,136.088z"/>
			<path id="path2868" d="M376.098,135.579c0,1.266-1.026,2.292-2.292,2.292s-2.292-1.026-2.292-2.292s1.026-2.292,2.292-2.292
				S376.098,134.313,376.098,135.579z"/>
			<path id="path2870" d="M385.619,132.423c0,1.266-1.026,2.292-2.292,2.292s-2.292-1.026-2.292-2.292s1.026-2.292,2.292-2.292
				S385.619,131.158,385.619,132.423z"/>
			<path id="path2872" d="M393.549,127.191c0,1.266-1.026,2.292-2.292,2.292s-2.292-1.026-2.292-2.292s1.026-2.292,2.292-2.292
				S393.549,125.925,393.549,127.191z"/>
			<path id="path2874" d="M399.482,120.879c0,1.266-1.025,2.292-2.291,2.292s-2.292-1.026-2.292-2.292
				c0-1.265,1.026-2.291,2.292-2.291S399.482,119.614,399.482,120.879z"/>
			<path id="path2876" d="M403.852,113.92c0,1.266-1.025,2.292-2.291,2.292s-2.292-1.026-2.292-2.292s1.026-2.292,2.292-2.292
				S403.852,112.655,403.852,113.92z"/>
			<path id="path2878" d="M406.604,106.26c0,1.266-1.026,2.292-2.292,2.292s-2.292-1.026-2.292-2.292s1.026-2.292,2.292-2.292
				S406.604,104.995,406.604,106.26z"/>
			<path id="path2880" d="M407.952,98.6c0,1.266-1.026,2.292-2.292,2.292s-2.291-1.026-2.291-2.292s1.025-2.292,2.291-2.292
				S407.952,97.334,407.952,98.6z"/>
			<path id="path2882" d="M407.79,90.67c0,1.266-1.026,2.292-2.292,2.292s-2.291-1.026-2.291-2.292s1.025-2.292,2.291-2.292
				S407.79,89.404,407.79,90.67z"/>
			<path id="path2884" d="M405.902,82.686c0,1.266-1.026,2.292-2.292,2.292s-2.292-1.026-2.292-2.292s1.026-2.292,2.292-2.292
				S405.902,81.42,405.902,82.686z"/>
			<path id="path2886" d="M402.881,75.997c0,1.266-1.025,2.292-2.291,2.292s-2.292-1.026-2.292-2.292s1.026-2.292,2.292-2.292
				S402.881,74.731,402.881,75.997z"/>
			<path id="path2888" d="M398.188,69.416c0,1.265-1.025,2.291-2.291,2.291s-2.292-1.026-2.292-2.291
				c0-1.266,1.026-2.292,2.292-2.292S398.188,68.15,398.188,69.416z"/>
			<path id="path2890" d="M392.901,64.237c0,1.266-1.026,2.292-2.292,2.292s-2.291-1.026-2.291-2.292
				c0-1.265,1.025-2.292,2.291-2.292S392.901,62.972,392.901,64.237z"/>
			<path id="path2892" d="M386.32,59.976c0,1.266-1.026,2.292-2.292,2.292s-2.292-1.026-2.292-2.292s1.026-2.292,2.292-2.292
				S386.32,58.71,386.32,59.976z"/>
			<path id="path2894" d="M379.199,57.063c0,1.266-1.025,2.292-2.291,2.292s-2.292-1.026-2.292-2.292s1.026-2.292,2.292-2.292
				S379.199,55.797,379.199,57.063z"/>
			<path id="path2896" d="M371.971,55.606c0,1.266-1.026,2.292-2.292,2.292s-2.291-1.026-2.291-2.292s1.025-2.292,2.291-2.292
				S371.971,54.34,371.971,55.606z"/>
			<path id="path2898" fill="none" stroke="#000000" stroke-width="0.9" d="M397.536,95.527c0,18.327-14.857,33.185-33.185,33.185
				s-33.185-14.857-33.185-33.185s14.857-33.185,33.185-33.185S397.536,77.2,397.536,95.527z"/>
			<path id="path2900" fill="none" stroke="#000000" stroke-width="2.8275" d="M402.926,95.757
				c0,21.019-17.039,38.059-38.059,38.059s-38.059-17.04-38.059-38.059s17.039-38.059,38.059-38.059S402.926,74.738,402.926,95.757z
				"/>
			<path id="path2902" fill="none" stroke="#000000" stroke-width="0.3055" d="M352.336,64.553l-3.433-2.937l0.267,4.463
				l-3.318-2.747l0.267,4.272l-3.089-2.594l0.648,4.311l-3.319-1.945l1.106,3.814l-4.196-1.106l1.831,3.472l-3.929-0.801
				l1.983,3.547l-4.349-0.61l2.595,3.357h-4.12l2.67,2.289l-4.005,0.725l2.746,2.251l-4.119,1.259l3.013,2.403l-3.509,1.793
				l3.242,1.602l-4.119,2.212l3.203,0.61l-3.356,2.937l3.738,0.458l-3.356,3.204l4.119,0.19L328,104.224l4.119-0.076l-3.242,3.052
				l4.539,0.076l-3.014,3.128l4.12-0.458l-2.823,4.12l4.502-1.45l-2.594,4.73l4.348-1.907l-1.602,5.531l4.311-2.518l-1.259,5.569
				l4.463-2.785l-0.802,5.493l3.93-3.128l-0.344,5.76l3.891-3.891l0.725,5.607l3.586-3.967l1.03,5.607l3.09-4.539l1.563,5.264
				l2.327-4.959l2.518,5.264l1.602-5.226l2.556,4.882l1.45-5.531l3.28,4.578l0.687-5.455l3.738,4.158l0.152-5.607l3.968,3.814
				l-0.306-5.951l4.157,3.357l-0.877-5.455l3.891,2.976l-1.068-5.76l4.502,2.212l-1.603-5.607l4.616,1.831l-2.441-5.035l4.844,1.526
				l-3.28-4.959l5.073,0.458l-3.7-3.891l4.54-0.229l-3.814-3.433l4.806-1.259l-4.311-2.938l4.577-1.183l-4.195-2.174l4.234-1.183
				l-4.692-1.64l4.157-2.594l-5.111-0.419l3.854-2.861h-4.234l4.158-2.899l-5.341,0.153l3.433-3.662l-4.959,1.221l3.357-3.776
				l-4.845,0.458l2.213-4.386l-4.577,1.792l1.754-4.997l-4.005,2.403l1.145-5.111l-3.968,2.975l0.268-5.569l-3.376,3.376
				l-0.645-5.612l-3.938,3.075l-0.809-5.017l-3.021,3.83l-0.646-4.693l-2.806,4.154l-1.456-4.747l-1.673,4.1l-2.104-4.585
				l-1.402,4.585l-2.806-4.046l-0.377,4.316l-3.615-3.614l-0.215,4.531l-3.345-3.291L352.336,64.553L352.336,64.553z"/>
			<path id="path2904" stroke="#000000" stroke-width="0.9" d="M367.365,94.688c0,1.412-1.145,2.556-2.556,2.556
				s-2.556-1.144-2.556-2.556c0-1.411,1.145-2.556,2.556-2.556S367.365,93.276,367.365,94.688z"/>
			<path id="path2906" stroke="#000000" stroke-width="0.3486" d="M363.687,96.874l0.812,0.01c0,0-1.193,11.455-4.749,43.973
				l-4.152-0.081"/>
			<path id="path2908" stroke="#000000" stroke-width="0.3527" d="M365.355,96.835l-0.83,0.01c0,0,1.716,13.763,5.286,44.121
				l3.826-0.233"/>
		</g>
	</g>
	<g id="layer2">
		<g id="g3522">
			<g id="g3172">
				<g id="g3174">
					<path id="path3176" fill="#0F0F0F" stroke="#000000" stroke-width="0.1233" d="M319.963,129.071V93.687h0.687v-8.701h-1.319
						v-1.408h-0.606l-1.794-2.967v-2.708l-1.937-6.125l-0.013-1.137v1.137l-2.103,6.125v2.708l-1.794,2.967h-0.606v1.408h-1.319
						v8.701h0.687v35.39L319.963,129.071L319.963,129.071z"/>
					<path id="path3178" fill="#FFFFFF" d="M317.721,89.143c0.001,1.694-1.372,3.068-3.066,3.068s-3.067-1.374-3.066-3.068
						c-0.001-1.694,1.372-3.068,3.066-3.068S317.722,87.449,317.721,89.143z"/>
				</g>
				<path id="path3180" fill="#0F0F0F" d="M298.795,113.1l16.563-0.048v16.021l-16.597,0.048L298.795,113.1z"/>
			</g>
			<path id="path3182" fill="#0F0F0F" d="M110.241,82.214l-2.348,3.584l-0.107-11.79l-1.492-2.256l-1.928,2.183l-0.029,54.626
				l19.326-6.979v6.999l0.029-54.392l-1.595-2.65l-1.878,2.471v11.836l-2.265-3.572l-2.089-0.006l-0.049-3.371l-1.843-2.961
				l-1.817,3.033l0.004,3.246L110.241,82.214L110.241,82.214z"/>
			<path id="path3184" fill="#0E0E0E" stroke="#000000" stroke-width="0.0181" d="M201.845,122.575v-15.563l-1.922-5.382v-4.357
				c0,0-3.244-7.931-3.372-13.441c-0.055-0.2-0.07-0.207-0.12-0.007c-0.128,5.51-3.358,13.447-3.358,13.447v4.357l-1.922,4.254
				v16.691"/>
			<path id="path3186" stroke="#000000" stroke-width="0.2058" d="M173.979,140.86h-11.095v-35.224l1.44-3.258l1.126,3.238
				l0.015,3.334h6.072v-3.621l1.195-2.94l1.232,2.997L173.979,140.86z"/>
			<path id="path3188" stroke="#000000" stroke-width="0.2058" d="M230.073,140.879h-11.094v-35.224l1.439-3.258l1.127,3.239
				l0.015,3.334h6.072v-3.62l1.195-2.94l1.233,2.997L230.073,140.879z"/>
			<g id="g3190">
				<path id="path3192" stroke="#000000" d="M113.787,140.857h-11.094v-35.224l1.44-3.258l1.126,3.238l0.015,3.334h6.072v-3.621
					l1.195-2.94l1.233,2.997L113.787,140.857L113.787,140.857z"/>
				<path id="path3194" stroke="#000000" d="M95.616,140.86l-11.094,0.018v-35.241l1.44-3.258l1.126,3.238l0.015,3.334h6.072v-3.621
					l1.195-2.94l1.233,2.997L95.616,140.86z"/>
				<path id="path3196" stroke="#000000" stroke-width="0.2345" d="M97.376,114.952l0.034,0.263c0.297,0.185,0.33,0.644,0.323,0.646
					l-0.01,2.784l-0.717,0.004l-0.01-2.789c-0.007-0.002,0.025-0.461,0.323-0.646l0.02-0.263H97.376L97.376,114.952z"/>
				<path id="path3198" stroke="#000000" stroke-width="1.8606" d="M88.768,118.766h21.02l-0.483,22.006l-20.699,0.009
					L88.768,118.766L88.768,118.766z"/>
				<path id="path3200" stroke="#000000" stroke-width="0.2345" d="M101.227,114.952l0.034,0.263
					c0.297,0.185,0.329,0.644,0.322,0.646l-0.01,2.784l-0.716,0.004l-0.01-2.789c-0.007-0.002,0.025-0.461,0.323-0.646l0.02-0.263
					H101.227L101.227,114.952z"/>
			</g>
			<g id="g3202">
				<path id="path3204" stroke="#000000" d="M308.5,140.867h-11.094v-35.224l1.439-3.258l1.126,3.239l0.015,3.334h6.072v-3.621
					l1.195-2.94l1.233,2.996L308.5,140.867L308.5,140.867z"/>
				<path id="path3206" stroke="#000000" d="M290.33,140.87h-11.094v-35.224l1.439-3.257l1.126,3.238l0.015,3.334h6.072v-3.621
					l1.195-2.94l1.233,2.996L290.33,140.87L290.33,140.87z"/>
				<path id="path3208" stroke="#000000" stroke-width="0.2345" d="M292.089,114.961l0.034,0.263
					c0.297,0.185,0.329,0.643,0.322,0.646l-0.01,2.785l-0.716,0.004l-0.01-2.789c-0.007-0.003,0.025-0.461,0.323-0.646l0.02-0.263
					H292.089L292.089,114.961z"/>
				<path id="path3210" stroke="#000000" stroke-width="1.8359" d="M283.758,118.772h20.461l-0.47,22.012l-20.148,0.009
					L283.758,118.772L283.758,118.772z"/>
				<path id="path3212" stroke="#000000" stroke-width="0.2345" d="M295.94,114.961l0.034,0.263c0.298,0.185,0.33,0.643,0.323,0.646
					l-0.01,2.785l-0.716,0.004l-0.01-2.789c-0.007-0.003,0.025-0.461,0.323-0.646l0.021-0.263H295.94L295.94,114.961z"/>
			</g>
			<g id="g3214">
				<path id="path3216" stroke="#000000" stroke-width="0.2345" d="M117.014,117.9l0.033,0.263c0.298,0.185,0.33,0.643,0.323,0.646
					l-0.01,2.784l-0.716,0.005l-0.01-2.789c-0.007-0.003,0.025-0.461,0.323-0.646l0.021-0.263H117.014L117.014,117.9z"/>
				<path id="path3218" stroke="#000000" stroke-width="0.2345" d="M121.239,117.9l0.034,0.263c0.297,0.185,0.33,0.643,0.323,0.646
					l-0.01,2.784l-0.717,0.005l-0.01-2.789c-0.007-0.003,0.025-0.461,0.323-0.646l0.02-0.263H121.239L121.239,117.9z"/>
				<path id="path3220" stroke="#000000" stroke-width="0.2345" d="M125.55,117.9l0.033,0.263c0.298,0.185,0.33,0.643,0.323,0.646
					l-0.01,2.784l-0.716,0.005l-0.01-2.789c-0.007-0.003,0.025-0.461,0.322-0.646l0.021-0.263H125.55L125.55,117.9z"/>
				<path id="path3222" stroke="#000000" stroke-width="0.2345" d="M129.775,117.9l0.034,0.263c0.297,0.185,0.329,0.643,0.322,0.646
					l-0.01,2.784l-0.716,0.005l-0.01-2.789c-0.007-0.003,0.025-0.461,0.323-0.646l0.02-0.263H129.775L129.775,117.9z"/>
				<path id="path3224" stroke="#000000" stroke-width="0.2345" d="M134.058,117.973l0.033,0.263
					c0.298,0.185,0.33,0.643,0.323,0.646l-0.01,2.785l-0.716,0.004l-0.01-2.789c-0.007-0.003,0.025-0.461,0.323-0.646l0.021-0.263
					H134.058z"/>
				<path id="path3226" stroke="#000000" stroke-width="0.2345" d="M138.283,117.973l0.034,0.263
					c0.297,0.185,0.33,0.643,0.323,0.646l-0.01,2.785l-0.717,0.004l-0.01-2.789c-0.007-0.003,0.025-0.461,0.323-0.646l0.02-0.263
					H138.283L138.283,117.973z"/>
				<path id="path3228" stroke="#000000" stroke-width="0.2345" d="M142.594,117.973l0.033,0.263
					c0.298,0.185,0.33,0.643,0.323,0.646l-0.01,2.785l-0.716,0.004l-0.01-2.789c-0.007-0.003,0.025-0.461,0.322-0.646l0.021-0.263
					H142.594z"/>
				<path id="path3230" stroke="#000000" stroke-width="0.2345" d="M146.819,117.973l0.034,0.263
					c0.297,0.185,0.329,0.643,0.322,0.646l-0.01,2.785l-0.716,0.004l-0.01-2.789c-0.007-0.003,0.025-0.461,0.323-0.646l0.02-0.263
					H146.819z"/>
				<path id="path3232" stroke="#000000" stroke-width="0.2345" d="M151.308,117.828l0.034,0.263
					c0.297,0.185,0.329,0.643,0.322,0.646l-0.01,2.784l-0.716,0.005l-0.01-2.789c-0.007-0.003,0.025-0.461,0.323-0.646l0.02-0.263
					H151.308L151.308,117.828z"/>
				<path id="path3234" stroke="#000000" stroke-width="0.2345" d="M155.618,117.828l0.033,0.263
					c0.298,0.185,0.33,0.643,0.323,0.646l-0.01,2.784l-0.716,0.005l-0.01-2.789c-0.007-0.003,0.025-0.461,0.322-0.646l0.021-0.263
					H155.618L155.618,117.828z"/>
				<path id="path3236" stroke="#000000" stroke-width="0.2345" d="M159.844,117.828l0.034,0.263
					c0.297,0.185,0.33,0.643,0.322,0.646l-0.01,2.784l-0.716,0.005l-0.01-2.789c-0.007-0.003,0.025-0.461,0.323-0.646l0.02-0.263
					H159.844L159.844,117.828z"/>
				<path id="path3238" stroke="#000000" stroke-width="1.1498" d="M105.831,121.499h65.041v19.347l-65.279,0.016L105.831,121.499z"
					/>
			</g>
			<g id="g3240">
				<path id="path3242" stroke="#000000" stroke-width="0.236" d="M232.967,117.918l0.034,0.263
					c0.301,0.185,0.333,0.644,0.327,0.646l-0.01,2.785l-0.726,0.004l-0.01-2.789c-0.007-0.003,0.025-0.461,0.327-0.646l0.021-0.263
					H232.967L232.967,117.918z"/>
				<path id="path3244" stroke="#000000" stroke-width="0.236" d="M237.245,117.918l0.034,0.263
					c0.301,0.185,0.334,0.644,0.327,0.646l-0.01,2.785l-0.725,0.004l-0.011-2.789c-0.007-0.003,0.025-0.461,0.327-0.646l0.021-0.263
					H237.245z"/>
				<path id="path3246" stroke="#000000" stroke-width="0.236" d="M241.609,117.918l0.034,0.263
					c0.301,0.185,0.333,0.644,0.326,0.646l-0.01,2.785l-0.725,0.004l-0.01-2.789c-0.007-0.003,0.025-0.461,0.327-0.646l0.021-0.263
					H241.609L241.609,117.918z"/>
				<path id="path3248" stroke="#000000" stroke-width="0.236" d="M245.888,117.918l0.034,0.263
					c0.302,0.185,0.334,0.644,0.327,0.646l-0.01,2.785l-0.725,0.004l-0.01-2.789c-0.007-0.003,0.025-0.461,0.327-0.646l0.021-0.263
					H245.888L245.888,117.918z"/>
				<path id="path3250" stroke="#000000" stroke-width="0.236" d="M250.223,117.991l0.034,0.263
					c0.302,0.185,0.334,0.644,0.327,0.646l-0.01,2.785l-0.725,0.004l-0.01-2.789c-0.007-0.003,0.025-0.461,0.327-0.646l0.021-0.263
					H250.223L250.223,117.991z"/>
				<path id="path3252" stroke="#000000" stroke-width="0.236" d="M254.502,117.991l0.034,0.263
					c0.301,0.185,0.333,0.644,0.326,0.646l-0.01,2.785l-0.726,0.004l-0.01-2.789c-0.007-0.003,0.025-0.461,0.327-0.646l0.021-0.263
					H254.502L254.502,117.991z"/>
				<path id="path3254" stroke="#000000" stroke-width="0.236" d="M258.866,117.991l0.034,0.263
					c0.301,0.185,0.333,0.644,0.327,0.646l-0.01,2.785l-0.726,0.004l-0.01-2.789c-0.007-0.003,0.025-0.461,0.326-0.646l0.021-0.263
					H258.866L258.866,117.991z"/>
				<path id="path3256" stroke="#000000" stroke-width="0.236" d="M263.145,117.991l0.034,0.263
					c0.301,0.185,0.334,0.644,0.327,0.646l-0.01,2.785l-0.725,0.004l-0.01-2.789c-0.007-0.003,0.025-0.461,0.327-0.646l0.021-0.263
					H263.145L263.145,117.991z"/>
				<path id="path3258" stroke="#000000" stroke-width="0.236" d="M267.689,117.846l0.034,0.263
					c0.302,0.185,0.334,0.644,0.327,0.646l-0.01,2.785l-0.725,0.004l-0.01-2.789c-0.007-0.003,0.025-0.461,0.327-0.646l0.021-0.263
					H267.689L267.689,117.846z"/>
				<path id="path3260" stroke="#000000" stroke-width="0.236" d="M272.053,117.846l0.034,0.263
					c0.301,0.185,0.334,0.644,0.327,0.646l-0.01,2.785l-0.725,0.004l-0.01-2.789c-0.007-0.003,0.025-0.461,0.327-0.646l0.021-0.263
					H272.053L272.053,117.846z"/>
				<path id="path3262" stroke="#000000" stroke-width="0.236" d="M276.332,117.846l0.034,0.263
					c0.301,0.185,0.333,0.644,0.327,0.646l-0.01,2.785l-0.726,0.004l-0.01-2.789c-0.007-0.003,0.025-0.461,0.326-0.646l0.021-0.263
					H276.332L276.332,117.846z"/>
				<path id="path3264" stroke="#000000" stroke-width="1.1399" d="M222.609,121.515h63.917v19.35h-64.151L222.609,121.515z"/>
			</g>
			<g id="g3266">
				<path id="path3268" stroke="#000000" stroke-width="0.2345" d="M176.605,115.312l0.033,0.263
					c0.298,0.185,0.33,0.644,0.323,0.646l-0.01,2.784l-0.716,0.004l-0.01-2.789c-0.007-0.002,0.024-0.461,0.322-0.646l0.021-0.263
					H176.605z"/>
				<path id="path3271" stroke="#000000" stroke-width="0.2345" d="M181.031,115.3l0.034,0.263c0.298,0.185,0.33,0.643,0.323,0.646
					l-0.01,2.785l-0.716,0.004l-0.01-2.789c-0.007-0.002,0.025-0.461,0.323-0.646l0.021-0.263L181.031,115.3z"/>
				<path id="path3273" stroke="#000000" stroke-width="0.2345" d="M185.354,115.3l0.034,0.263c0.297,0.185,0.33,0.643,0.323,0.646
					l-0.01,2.785l-0.717,0.004l-0.01-2.789c-0.007-0.002,0.025-0.461,0.323-0.646l0.02-0.263L185.354,115.3z"/>
				<path id="path3275" stroke="#000000" stroke-width="0.2345" d="M189.779,115.3l0.033,0.263c0.298,0.185,0.33,0.643,0.323,0.646
					l-0.01,2.785l-0.716,0.004l-0.01-2.789c-0.007-0.002,0.025-0.461,0.322-0.646l0.021-0.263L189.779,115.3z"/>
				<path id="path3277" stroke="#000000" stroke-width="0.2345" d="M194.129,115.3l0.033,0.263c0.298,0.185,0.33,0.643,0.323,0.646
					l-0.01,2.785l-0.716,0.004l-0.01-2.789c-0.007-0.002,0.025-0.461,0.322-0.646l0.021-0.263L194.129,115.3z"/>
				<path id="path3279" stroke="#000000" stroke-width="0.2345" d="M198.478,115.3l0.033,0.263c0.298,0.185,0.33,0.643,0.323,0.646
					l-0.01,2.785l-0.716,0.004l-0.01-2.789c-0.007-0.002,0.025-0.461,0.322-0.646l0.021-0.263L198.478,115.3z"/>
				<path id="path3281" stroke="#000000" stroke-width="0.2345" d="M202.723,115.3l0.034,0.263c0.297,0.185,0.33,0.643,0.323,0.646
					l-0.01,2.785l-0.716,0.004l-0.01-2.789c-0.007-0.002,0.025-0.461,0.323-0.646l0.02-0.263L202.723,115.3z"/>
				<path id="path3283" stroke="#000000" stroke-width="0.2345" d="M207.097,115.3l0.034,0.263c0.297,0.185,0.329,0.643,0.322,0.646
					l-0.01,2.785l-0.716,0.004l-0.01-2.789c-0.007-0.002,0.025-0.461,0.323-0.646l0.02-0.263L207.097,115.3z"/>
				<path id="path3285" stroke="#000000" stroke-width="0.2345" d="M211.496,115.3l0.033,0.263c0.298,0.185,0.33,0.643,0.323,0.646
					l-0.01,2.785l-0.716,0.004l-0.01-2.789c-0.007-0.002,0.025-0.461,0.323-0.646l0.021-0.263L211.496,115.3z"/>
				<path id="path3287" stroke="#000000" stroke-width="0.2345" d="M215.921,115.3l0.034,0.263c0.297,0.185,0.33,0.643,0.322,0.646
					l-0.01,2.785l-0.716,0.004l-0.01-2.789c-0.007-0.002,0.025-0.461,0.323-0.646l0.02-0.263L215.921,115.3z"/>
				<path id="path3289" stroke="#000000" stroke-width="1.1562" d="M166.328,119.038h60.432v21.816h-60.7L166.328,119.038z"/>
			</g>
		</g>
	</g>
</g>
</svg>
